<?xml version="1.0" encoding="UTF-8" standalone="no"?>
<svg
   xmlns:dc="http://purl.org/dc/elements/1.1/"
   xmlns:cc="http://creativecommons.org/ns#"
   xmlns:rdf="http://www.w3.org/1999/02/22-rdf-syntax-ns#"
   xmlns:svg="http://www.w3.org/2000/svg"
   xmlns="http://www.w3.org/2000/svg"
   xmlns:sodipodi="http://sodipodi.sourceforge.net/DTD/sodipodi-0.dtd"
   xmlns:inkscape="http://www.inkscape.org/namespaces/inkscape"
   width="210mm"
   height="297mm"
   viewBox="0 0 210 297"
   version="1.1"
   id="svg8"
   inkscape:version="1.0.2-2 (e86c870879, 2021-01-15)"
   sodipodi:docname="TrackstackObject.svg">
  <defs
     id="defs2" />
  <sodipodi:namedview
     id="base"
     pagecolor="#ffffff"
     bordercolor="#666666"
     borderopacity="1.0"
     inkscape:pageopacity="0.0"
     inkscape:pageshadow="2"
     inkscape:zoom="0.35"
     inkscape:cx="227.3558"
     inkscape:cy="718.97804"
     inkscape:document-units="mm"
     inkscape:current-layer="text38"
     inkscape:document-rotation="0"
     showgrid="false"
     inkscape:window-width="1254"
     inkscape:window-height="1040"
     inkscape:window-x="2173"
     inkscape:window-y="215"
     inkscape:window-maximized="0" />
  <metadata
     id="metadata5">
    <rdf:RDF>
      <cc:Work
         rdf:about="">
        <dc:format>image/svg+xml</dc:format>
        <dc:type
           rdf:resource="http://purl.org/dc/dcmitype/StillImage" />
        <dc:title></dc:title>
      </cc:Work>
    </rdf:RDF>
  </metadata>
  <g
     inkscape:label="Ebene 1"
     inkscape:groupmode="layer"
     id="layer1">
    <g
       id="g34"
       transform="matrix(0.35277777,0,0,0.35277777,-71.391635,87.834052)">
      <g
         id="#fef4b6ff">
        <path
           fill="#fef4b6"
           opacity="1"
           d="m 711.46,207.65 c 1.79,-8 4.07,-15.93 4.75,-24.13 1.3,8 -0.99,15.95 -1.04,23.96 -1.24,0.06 -2.48,0.11 -3.71,0.17 z"
           id="path10" />
        <path
           fill="#fef4b6"
           opacity="1"
           d="m 288.24,186.7 c 1.26,6.95 -0.58,13.91 -0.84,20.86 -1.06,0.02 -2.12,0.04 -3.17,0.06 1.53,-6.93 3.59,-13.79 4.01,-20.92 z"
           id="path12" />
      </g>
      <g
         id="#312b2bff">
        <path
           fill="#312b2b"
           opacity="1"
           d="m 384.12,14.77 c 1.67,-4.77 4.33,-10.4 9.83,-11.48 5.64,-1.17 10.13,3.77 11.98,8.57 4.99,12.75 6.16,26.54 8.29,39.95 5.95,51.81 8.42,103.91 13.07,155.84 7.3,-0.08 14.61,0.03 21.91,-0.08 2.36,-4.35 4.25,-8.93 6.02,-13.55 1.85,-15 3.64,-30.03 6.48,-44.88 1.9,-9 3.62,-18.26 8.05,-26.42 2.4,-4.43 6.88,-8.65 12.32,-7.78 5.81,0.48 9.05,6.12 11.22,10.89 6.13,17.81 8.03,36.69 10.46,55.27 1.23,8.81 1.63,17.73 3.24,26.49 11.52,0.08 23.04,-0.01 34.57,0.05 3.53,-10.98 6.21,-22.32 11.27,-32.74 2.09,-3.97 4.42,-8.29 8.55,-10.47 4.25,-2.31 9.73,-1.12 13.19,2.09 3.05,2.75 4.98,6.47 6.56,10.2 4.05,9.91 6.1,20.46 8.2,30.91 10.84,-0.01 21.68,-0.01 32.52,0 3.45,-35.22 6.08,-70.53 10.96,-105.59 1.78,-11.48 3.44,-23.09 7.36,-34.07 1.73,-4.55 4.47,-9.63 9.57,-10.92 4.08,-1.38 8.08,1.75 10.07,5.1 2.9,5.11 4.11,10.96 5.38,16.64 3.59,18.08 5.21,36.46 6.96,54.79 2.15,24.65 3.73,49.35 5.4,74.04 10.83,-0.03 21.66,0.08 32.49,-0.06 3.69,-15.73 6.66,-31.61 10.22,-47.36 1.36,-10.78 3.08,-21.59 6.32,-31.98 1.55,-4.38 3.61,-9.55 8.36,-11.21 4.95,-1.32 9.42,2.28 11.58,6.43 4.18,7.67 5.86,16.37 7.65,24.84 2.94,15.52 4.91,31.21 6.63,46.9 0.62,2.96 0.78,5.98 0.9,9 0.22,0.86 0.66,2.58 0.87,3.44 12.87,-0.05 25.73,0.1 38.6,-0.08 2.88,-12 4.77,-24.38 9.62,-35.81 2.17,-5.1 6.15,-10.83 12.29,-10.86 6.08,1.41 8.82,7.72 11.79,12.56 l 0.68,0.21 c -0.74,5.93 1.53,11.56 2.6,17.29 0.56,3.71 1.19,7.42 2.01,11.09 0.21,1.84 0.37,3.69 0.56,5.54 15.53,-0.03 31.06,0.25 46.59,-0.08 0.03,-1.49 0.03,-2.98 0.16,-4.47 3.48,-24 4.88,-48.5 11.84,-71.86 1.66,-4.37 3.39,-10.44 8.74,-11.33 3.79,0.57 6.09,4.14 7.52,7.38 3.67,8.56 5.3,17.81 6.95,26.93 3.1,17.71 4.88,35.61 7.07,53.44 7.01,0.11 14.02,0.03 21.04,0.05 0,2.04 0,4.09 0.03,6.14 -6.7,0.02 -13.4,-0.03 -20.09,0.05 0.13,4.05 0.29,8.11 0.48,12.17 -1.59,-3.96 -1.74,-8.15 -2.45,-12.27 -12.73,0.09 -25.45,0.09 -38.18,0.01 -3.8,33.01 -5.52,66.29 -10.62,99.16 -1.35,8.73 -2.88,17.49 -5.73,25.88 -1.39,3.62 -3.08,7.69 -6.77,9.52 -3.44,1.45 -6.94,-0.97 -8.75,-3.79 -4.07,-6.21 -5.74,-13.58 -7.47,-20.69 -5.3,-24.72 -7.94,-49.9 -10.89,-74.97 -1.64,-11.5 -2.82,-23.06 -4.7,-34.52 -8.53,-0.43 -17.03,-0.05 -25.56,-0.39 -0.6,0.14 -1.8,0.42 -2.4,0.55 -3.38,20.55 -5.84,41.27 -10.37,61.62 -1.66,6.97 -3.43,14.04 -6.85,20.4 -1.67,3.09 -4.04,6.04 -7.4,7.35 -2.78,0.92 -6.08,0.6 -8.35,-1.35 -3.87,-3.17 -5.6,-8.1 -7.21,-12.66 -4.38,-13.87 -6.27,-28.35 -8.52,-42.66 -1.47,-11.01 -2.75,-22.05 -4.27,-33.05 -7.21,-0.03 -14.43,0.39 -21.63,-0.17 -3.1,0.12 -6.2,0.3 -9.29,0.43 -0.1,3.83 -0.13,7.68 -0.74,11.47 -0.58,4.04 -0.17,8.17 -1.06,12.17 -1.29,20.67 -3.1,41.3 -4.69,61.95 -1.98,21.33 -3.7,42.73 -7.3,63.87 -1.48,8.01 -2.91,16.16 -6.34,23.6 -1.68,3.32 -4.43,6.98 -8.47,7.15 -4.85,0.59 -8.13,-4.01 -9.76,-7.96 -3.56,-9.14 -4.86,-18.93 -6.42,-28.55 -6.48,-47.88 -8.48,-96.21 -12.35,-144.34 -10.95,0.06 -21.9,0.02 -32.85,0.01 -2.46,22.49 -4.3,45.11 -8.85,67.31 -1.57,6.83 -3.08,13.89 -6.77,19.95 -1.84,3.18 -5.21,5.67 -8.98,5.65 -4.1,0.14 -7.88,-2.28 -10.28,-5.46 -4.33,-5.63 -6.36,-12.58 -8.32,-19.29 -5.32,-19.97 -7.86,-40.51 -11.49,-60.81 -0.4,-2.19 -0.66,-4.41 -0.89,-6.62 -3.62,-1.03 -7.36,-0.08 -11.04,-0.57 -3.52,-0.39 -7.03,0.03 -10.52,0.42 -3.86,24.88 -6.56,49.92 -10.42,74.8 -1.84,11.05 -3.68,22.16 -6.97,32.89 -1.8,5.36 -3.76,11.06 -8.08,14.94 -3.62,3.4 -9.8,3.85 -13.65,0.61 -3.7,-2.99 -5.59,-7.54 -7.15,-11.9 -3.32,-9.93 -4.97,-20.3 -6.64,-30.61 -3.69,-24.97 -6.04,-50.11 -8.43,-75.23 -0.32,-1.84 -0.59,-3.7 -0.82,-5.54 -2.78,0 -5.56,-0.07 -8.32,-0.36 -4.36,-0.41 -8.7,0.68 -13.06,0.2 -2.49,-0.3 -4.98,-0.18 -7.45,0.15 -2.84,23.07 -5.25,46.29 -10.49,68.97 -2.23,7.79 -4.07,16.78 -11.01,21.84 -4.33,3.13 -10.74,1.92 -13.66,-2.54 -4.72,-6.92 -5.96,-15.47 -7.67,-23.49 -3.67,-21.42 -5.78,-43.09 -7.33,-64.74 -13.26,-0.18 -26.51,-0.02 -39.76,-0.08 -1.52,14.89 -2.66,29.83 -4.68,44.68 -1.17,9.73 -2.66,19.44 -4.94,28.97 -1.25,4.75 -2.54,9.64 -5.31,13.76 -1.87,2.84 -5.2,4.99 -8.69,4.57 -3.62,-0.31 -6.57,-2.84 -8.56,-5.71 -2.75,-4.02 -4.18,-8.74 -5.65,-13.33 -6.06,-23.89 -8.29,-48.5 -11.37,-72.89 -9.88,-0.01 -19.77,-0.21 -29.65,0.11 -0.16,10.58 -1.82,21.06 -2.37,31.61 -3.52,37.08 -5.63,74.39 -12.27,111.09 -1.62,7.49 -3.07,15.26 -7,21.94 -1.92,3.52 -6.13,5.88 -10.11,4.5 -3.55,-1.57 -5.46,-5.24 -6.86,-8.65 -4.84,-15.13 -6.33,-31.04 -8.22,-46.72 -3.99,-37.89 -6.25,-75.93 -8.83,-113.93 -12.35,-0.01 -24.69,0.02 -37.03,-0.01 -2.42,21.7 -4.6,43.48 -8.95,64.9 -1.63,6.95 -3.07,14.19 -6.88,20.34 -1.72,2.93 -5.57,4.79 -8.81,3.21 -3.89,-1.86 -5.81,-6.03 -7.37,-9.81 -3.42,-8.9 -5.12,-18.35 -6.81,-27.7 -2.81,-16.88 -4.93,-33.88 -6.82,-50.88 -6.12,-1.02 -12.3,0.46 -18.47,-0.14 -7.71,0.06 -15.43,0.05 -23.14,0.2 -1.29,9.28 -3.14,18.49 -5.16,27.64 -1.84,7.24 -3.55,14.69 -7.36,21.19 -1.79,3.06 -5.01,6.23 -8.88,5.29 -4.37,-1.27 -6.33,-5.95 -8.06,-9.74 -5.51,-14.25 -7.26,-29.54 -9.85,-44.49 -4.17,-0.9 -8.37,0.35 -12.57,-0.08 -3.6,-0.42 -7.24,-0.47 -10.86,-0.39 0.02,-2.05 0.03,-4.11 0.02,-6.16 7.51,0.01 15.02,0.04 22.53,-0.02 -0.51,-2.08 -1.02,-4.16 -1.34,-6.27 l -1.28,0.04 c 0.42,-0.52 1.25,-1.56 1.67,-2.08 l -2.14,0.19 c 0.1,-0.77 0.3,-2.32 0.41,-3.1 -0.61,-0.12 -1.81,-0.36 -2.41,-0.47 0.79,-0.05 2.36,-0.15 3.14,-0.2 -0.24,-2.78 -0.36,-5.57 -0.3,-8.36 l -0.83,0.3 c -0.07,-2.26 -0.17,-4.52 -0.31,-6.78 -3.48,-16.64 -4.19,-34.16 -10.99,-49.95 -0.6,-3.14 -2.63,-5.66 -4.35,-8.26 2.94,3.26 4.59,7.39 7.04,10.98 l -1.17,-0.19 c 1.94,4.7 2.89,9.69 4.24,14.57 2.98,15.32 5.86,30.68 7.74,46.17 0.92,4.41 1.65,8.86 2.05,13.35 12.33,0.15 24.67,0.16 37,-0.02 -0.13,-1.66 -0.24,-3.32 -0.35,-4.98 l 0.94,0.21 c 0.06,-4.05 1.48,-7.88 2.19,-11.83 2.74,-16.59 4.82,-33.41 10.03,-49.46 1.86,-5.08 3.87,-10.91 8.87,-13.71 3.17,-2.17 7.05,0.14 9.04,2.83 3.48,4.82 4.89,10.71 6.6,16.32 2.11,7.94 2.9,16.2 5.73,23.95 3.9,12.33 7.09,24.95 12.46,36.76 9.26,-0.03 18.53,0.22 27.78,-0.23 0.11,-0.28 0.33,-0.86 0.43,-1.14 -0.67,0.2 -2.03,0.6 -2.71,0.8 3.74,-4.92 3.36,-11.16 3.98,-16.96 2.27,-23.09 4.08,-46.23 7.07,-69.25 1.66,-12.74 3.4,-25.54 6.95,-37.92 1.37,-4.26 2.87,-8.81 6.21,-11.97 2.95,-2.95 8.5,-2.19 10.57,1.47 4.38,6.91 5.47,15.27 7.16,23.12 6.26,37.08 8.29,74.69 11.5,112.11 11.2,-0.02 22.39,0.01 33.58,-0.02 3.38,-14.12 5.92,-28.42 8.88,-42.64 1.84,-12.05 3.25,-24.24 6.78,-35.95 1.55,-4.69 3.52,-9.88 8.09,-12.4 4.04,-1.86 8.97,-0.2 11.62,3.23 4.62,5.73 6.44,13.08 8.29,20.06 5.15,22.25 7.51,45.03 10.21,67.68 9.24,0.06 18.49,0.05 27.73,0 1.48,-20.61 3.42,-41.21 4.33,-61.85 l 0.48,-0.65 c 0.87,-17.4 2.29,-34.78 3.87,-52.12 0.85,-13.08 2.44,-26.08 3.67,-39.12 1.91,-13.1 3.22,-26.43 7.34,-39.08 m 7.07,24.46 c -3.11,19.47 -4.81,39.13 -6.62,58.75 -1.3,17.39 -2.99,34.76 -3.9,52.17 1.21,-4.29 2.92,-8.45 5.16,-12.31 2.28,-4.12 6.4,-7.3 11.26,-7.36 7.54,3.28 10.75,11.41 13.28,18.64 -0.92,-5.94 -0.54,-12 -1.53,-17.93 -0.87,-15.72 -2.31,-31.39 -3.66,-47.08 -2.28,-21.57 -3.72,-43.45 -9.55,-64.44 -2.22,6.33 -3.3,12.98 -4.44,19.56 m 259.67,33.32 c -4.49,13.74 -5.92,28.2 -7.97,42.44 -0.62,6 -1.19,12 -1.99,17.98 -0.62,9.73 -2.22,19.38 -2.44,29.13 3.29,-4.34 6.22,-10.77 12.48,-11.04 6.42,-0.58 9.8,6.17 11.96,11.14 -2,-26.14 -4.04,-52.34 -8.56,-78.19 -1.01,-3.84 -0.99,-8.22 -3.48,-11.46 m -431.11,16.3 c -5.29,21.97 -7.25,44.56 -9.84,66.96 -0.65,7.45 -1.8,14.87 -1.85,22.37 2.13,-6.7 4.45,-13.61 9.08,-19.03 3.02,-3.49 8.79,-5.03 12.59,-1.88 4.37,3.75 6.29,9.48 8.26,14.7 -0.91,-15.39 -2.37,-30.74 -3.92,-46.07 -2.07,-16.44 -3.15,-33.34 -9.1,-48.96 -3.29,3.08 -3.94,7.79 -5.22,11.91 m 681.95,43.83 c -2.99,9.94 -4.5,20.24 -6.01,30.48 -1.36,10.6 -2.88,21.19 -3.42,31.87 0.74,-2.15 1.42,-4.38 1.21,-6.69 l 2.46,-0.17 c -2.83,6.11 -4.86,12.64 -5.31,19.39 12.48,0.12 24.97,0.07 37.46,0.03 -0.53,-2.64 -1.24,-5.24 -1.93,-7.84 -1.77,-4.03 -3.28,-8.17 -4.95,-12.24 -2.84,-4.38 -5.74,-8.79 -9.83,-12.12 -2.37,0.05 -4.74,0.07 -7.09,0.09 0.06,0.59 0.19,1.78 0.26,2.38 -0.4,-0.14 -1.19,-0.41 -1.58,-0.55 -2.26,2.95 -5.37,5.43 -6.06,9.29 -0.49,-0.59 -0.96,-1.19 -1.42,-1.78 2.88,-3.45 5.14,-7.77 9.3,-9.88 2.7,-0.79 6.12,-0.88 8.31,1.19 3.02,2.66 5.92,5.61 7.71,9.27 2.21,3.97 2.94,8.64 5.67,12.34 0.02,-4.06 -0.77,-8.04 -1.26,-12.05 -2.39,-16.7 -4.53,-33.52 -9.02,-49.82 -1.47,-4.02 -2.59,-8.36 -5.43,-11.68 -0.92,-1.19 -2.32,-1.83 -3.8,-1.41 -3,2.46 -4.08,6.38 -5.27,9.9 m -166.88,-1.19 c 2.04,0.43 4.08,0.87 6.15,1.26 -1.05,-2.28 -2.16,-4.51 -3.39,-6.68 -0.96,1.79 -1.87,3.6 -2.76,5.42 m -425.18,-1.92 c -4.26,12.08 -5.82,24.89 -7.53,37.52 -0.5,2.65 -0.7,5.34 -0.92,8.02 -0.15,1.35 -0.39,2.68 -0.67,4.01 1.89,-2.05 3.91,-3.98 6.18,-5.61 2.48,-0.06 4.96,-0.06 7.45,0.01 3.17,1.74 5.85,4.17 8.18,6.91 -2.76,-17.09 -4.19,-34.73 -10.79,-50.89 -0.47,0.01 -1.43,0.02 -1.9,0.03 m 164.54,22.31 c 3.81,-2.26 8.62,-2.48 12.55,-0.37 -1.61,-7.41 -2.87,-14.97 -5.83,-21.99 -3.76,6.91 -4.83,14.83 -6.72,22.36 M 131.92,140.1 c -2.32,6 -3.99,12.24 -5.23,18.55 2.53,-4.79 4.88,-10.46 10.11,-12.87 4.62,-1.85 9.1,1.52 12.02,4.81 -1.31,-5.98 -2.72,-12.16 -6.07,-17.37 -1,-1.24 -2.15,-3.1 -4.04,-2.64 -3.52,2.03 -5.31,5.91 -6.79,9.52 m 262.82,-5.44 c -3.16,1.86 -5.52,4.76 -6.94,8.12 -4.59,10.17 -6.65,21.23 -8.99,32.07 -0.48,6.27 -1.37,12.51 -1.48,18.81 l 0.51,-2.4 c 0.59,0.67 1.18,1.35 1.76,2.04 -0.63,2.18 -1.17,4.39 -1.76,6.58 -0.57,2.57 -1.19,5.12 -1.68,7.71 12.81,0.08 25.61,0.01 38.42,0.04 -0.08,-3.18 -0.15,-6.37 -0.8,-9.48 -0.63,-7.13 0.32,-14.93 -3.71,-21.26 -2.98,-5.85 -7.97,-12.13 -15.14,-12.04 -7.31,2.38 -9.56,10.67 -12.21,17.03 -0.81,2.42 -1.25,4.93 -1.47,7.46 l -0.15,0.81 c 0.1,2 -1.69,1.36 -2.89,0.99 2.31,-8.08 4.43,-16.57 9.51,-23.44 2.32,-3.31 6.6,-5.31 10.6,-4.17 6.48,1.27 10.48,7.14 13.41,12.56 0.24,-5.52 -1.53,-10.81 -2.71,-16.13 -1.81,-6.84 -3.66,-13.8 -7.18,-19.99 -1.25,-2.37 -3.37,-4.06 -5.61,-5.44 -0.37,0.03 -1.12,0.1 -1.49,0.13 m 335.07,22.54 c -0.94,7.63 -2.24,15.24 -2.48,22.93 2.08,-2.55 4.21,-5.44 7.5,-6.48 1.72,-0.19 3.46,-0.14 5.21,-0.15 4.71,2.18 8.38,6.06 10.74,10.64 -1.81,-15.16 -4.1,-30.32 -7.9,-45.13 -0.37,-2.3 -1.81,-4.11 -3.56,-5.54 -1.6,0.04 -3.19,0.08 -4.77,0.11 -2.44,7.68 -3.44,15.7 -4.74,23.62 m -604.68,8.78 c -1.99,10.41 -4.22,20.85 -5.04,31.43 3.12,-6.55 6.03,-13.86 12.25,-18.1 3.07,-2.28 7.14,-2.32 10.74,-1.62 6.66,2.81 9.87,9.9 12.58,16.11 -1.37,-13.72 -3.4,-27.41 -6.27,-40.91 -2.78,-3.99 -7.11,-8.11 -12.43,-6.45 -6.79,4.18 -9.49,12.35 -11.83,19.54 M 473.57,155.3 c -1.22,7.78 -2.65,15.54 -3.47,23.39 1.4,-1.39 2.82,-2.75 4.25,-4.1 2.41,-0.83 4.81,-2.22 7.45,-1.96 2.67,0.54 5.03,1.98 7.34,3.37 0.3,0.53 0.9,1.58 1.2,2.11 -0.03,-1.68 -0.2,-3.36 -0.47,-5.01 -0.78,-6.05 -1.42,-12.16 -2.78,-18.1 -3.27,-4.57 -10.07,-3.47 -13.52,0.3 m 169.18,8.15 c -3.72,8.58 -7.37,17.69 -6.44,27.24 1.33,-7.13 3.38,-14.2 6.78,-20.64 1.79,-3.33 4.77,-6.86 8.93,-6.65 3.68,-0.23 6.52,2.36 9.06,4.64 -2.07,-4.57 -3.45,-10.35 -8.18,-12.93 -5.21,-1.04 -8.17,4.46 -10.15,8.34 m -428.77,5.06 c 0.82,-0.31 2.47,-0.93 3.29,-1.24 -6.32,5.62 -7.49,14.21 -9.84,21.86 -1.92,5.97 -1.93,12.29 -2.71,18.46 11.97,0.07 23.94,0.02 35.91,0.03 -0.33,-5.9 -0.85,-11.78 -1.19,-17.67 -0.28,-5.13 -1.97,-10.02 -3.35,-14.92 -1.23,-4.49 -4.53,-8.58 -9.06,-10.01 -3.2,-1 -6.64,0.18 -9.06,2.37 -0.5,-0.48 -1,-0.95 -1.49,-1.43 1.84,-0.68 3.67,-1.42 5.47,-2.22 4.12,-0.55 8.41,0.44 11.13,3.81 -1.24,-4.27 -3.87,-8.2 -8.08,-9.98 -5.57,1.3 -8.36,6.41 -11.02,10.94 m 427.53,9.25 c -3.36,9.7 -5.44,19.79 -7.38,29.85 10.71,0 21.42,0.06 32.13,-0.03 -0.69,-9.36 -1.2,-18.74 -2.06,-28.08 -0.66,-6.87 -5.51,-13.22 -12.25,-15.07 -5.99,1.78 -8.45,8.02 -10.44,13.33 m 169.5,17.6 c 3.09,-2.66 6.67,-5.31 10.94,-5.33 4.2,-0.38 7.57,2.52 10.64,4.96 -1.51,-5.5 -2.42,-11.15 -4.22,-16.57 -1.36,-4.11 -2.76,-8.52 -6.3,-11.3 -7.24,7.57 -8.59,18.5 -11.06,28.24 m -507,-14.31 c -2.45,3.63 -4.49,7.71 -4.9,12.13 -0.73,4.78 -0.57,9.65 -1.61,14.39 9.38,0.09 18.77,0.07 28.16,0.02 -0.77,-5.41 -1.07,-10.89 -2.19,-16.24 -2.25,-5.82 -5.55,-11.92 -11.51,-14.62 -3.3,-0.47 -6.18,1.72 -7.95,4.32 m -145.63,-5.4 c -0.13,2.15 -0.07,4.32 0.24,6.46 1.31,8.49 2.42,17.02 3.54,25.54 2.31,-0.02 4.63,-0.04 6.95,-0.06 -4.69,-10.25 -7.58,-21.17 -10.73,-31.94 m 318.04,3.01 c -3.57,2.77 -5.98,6.81 -7.67,10.95 -1.24,5.92 -1.5,12 -2.43,17.98 9.12,0.07 18.24,0.02 27.36,0.02 -0.14,-2.52 -0.28,-5.04 -0.59,-7.55 -0.94,-4.59 -0.25,-9.55 -2.49,-13.83 -1.5,-3.56 -4.22,-6.38 -7.14,-8.82 -2.38,0.08 -5.08,-0.47 -7.04,1.25 m 89.43,-1.64 c -2.27,4.78 -3.63,9.9 -5.17,14.94 4.32,-1.47 8.87,-0.87 13.1,0.58 -0.25,-0.33 -0.74,-1 -0.99,-1.34 -1.07,-4.68 -2.94,-9.1 -4.77,-13.52 -0.73,-0.22 -1.45,-0.44 -2.17,-0.66 m 166.78,1.59 c -5.15,5.88 -7.77,13.74 -7.4,21.54 -0.52,2.46 -0.71,4.96 -0.81,7.46 9.79,0.02 19.58,0.02 29.38,0 -0.78,-5.76 -0.59,-11.87 -3.29,-17.17 -2.41,-5.08 -5.03,-10.81 -10.36,-13.38 -2.55,-1.34 -5.64,-0.51 -7.52,1.55 m -609.67,15.36 c -1.98,4.4 -4.3,8.77 -4.94,13.62 13.19,0.06 26.38,0.04 39.57,0.01 -0.44,-7.75 -3.73,-14.99 -7.57,-21.61 -2.61,-4.62 -7.46,-8.49 -13.07,-7.55 -7.01,2.47 -10.93,9.21 -13.99,15.53 m 588.5,13.68 c 1.23,-0.06 2.47,-0.11 3.71,-0.17 0.05,-8.01 2.34,-15.96 1.04,-23.96 -0.68,8.2 -2.96,16.13 -4.75,24.13 M 288.24,186.7 c -0.42,7.13 -2.48,13.99 -4.01,20.92 1.05,-0.02 2.11,-0.04 3.17,-0.06 0.26,-6.95 2.1,-13.91 0.84,-20.86 m 520.82,20.9 c 8.53,0.02 17.07,0.06 25.6,-0.02 -0.31,-6.77 -4.57,-14.13 -11.74,-15.21 -7.71,0.13 -14.46,7.53 -13.86,15.23 m -249.48,-9.56 c -0.73,3.17 -1.32,6.37 -1.95,9.56 6.31,0.03 12.62,0.03 18.93,0 -0.44,-2.21 -0.85,-4.43 -1.33,-6.64 -0.43,-3.24 -3.93,-4.58 -6.65,-5.45 -3.27,-1.14 -6.36,0.85 -9,2.53 m -106.23,6.28 c -1.25,0.34 -2.51,2.28 -1.39,3.36 1.81,0.84 3.68,-3.26 1.39,-3.36 m -170.66,9.43 c -2.46,7.01 -4.36,14.7 -9.67,20.19 -3.52,3.84 -9.78,2.52 -13.04,-0.98 -4.54,-4.81 -7.36,-11.08 -9.03,-17.42 -0.33,-0.07 -0.99,-0.21 -1.32,-0.28 0.92,8.32 0.85,16.77 3.22,24.87 2.18,8.95 4.12,18.2 8.89,26.21 1.48,2.42 4.14,5.05 7.24,4.03 3.63,-1.33 5.53,-5.05 7.22,-8.27 4.27,-9.23 6.59,-19.2 8.81,-29.08 0.87,-6.38 1.38,-12.83 1.64,-19.28 -1.32,0.01 -2.64,0.01 -3.96,0.01 m 427.18,0 c -2.17,6.5 -4.07,13.34 -8.42,18.78 -1.98,2.53 -5.12,4.45 -8.44,3.73 -6.21,-1 -9.52,-7.06 -12.28,-12.07 -0.74,-1.91 -1.46,-3.82 -2.17,-5.72 -0.27,7.56 0.58,15.1 1.33,22.61 2.17,9.39 3.93,19.07 8.4,27.7 1.43,2.39 3.35,5.48 6.48,5.48 3.72,-0.57 5.78,-4.22 7.47,-7.22 5,-10.05 7.24,-21.16 9.81,-32 1.72,-6.96 1.47,-14.18 2.39,-21.25 -1.54,-0.02 -3.06,-0.03 -4.57,-0.04 m 53.47,-0.01 c -0.25,6.59 2.43,12.8 5.47,18.49 1.98,3.48 4.44,7.24 8.44,8.57 4.47,1.56 9.25,-1.03 12.16,-4.38 5.2,-6.33 8.47,-14.05 10.21,-22.02 -1.53,-0.35 -3.09,-0.71 -4.66,-0.66 -10.54,0.03 -21.08,0.05 -31.62,0 m -683.16,0.71 c 1.63,2.61 3.25,5.23 4.52,8.04 2.89,3.02 6,6.34 10.34,7.07 4.24,0.92 8.17,-1.62 11.28,-4.21 1.79,-2.27 3.43,-4.7 4.37,-7.46 0.34,-0.81 1.03,-2.41 1.37,-3.22 -0.74,-0.22 -2.23,-0.66 -2.97,-0.88 -9.59,1.06 -19.29,-0.15 -28.91,0.66 m 94.97,-0.17 c 0.44,0.45 1.34,1.33 1.79,1.78 0.49,0.33 1.47,1 1.96,1.34 3.13,0.26 6.3,0.22 9.21,-1.11 0.66,-0.43 1.98,-1.28 2.64,-1.7 -5.16,-1.04 -10.4,-0.19 -15.6,-0.31 m 252.5,0.06 c 1.16,6.46 0.05,13.53 3.52,19.4 1.56,2.83 3.52,6.33 7.04,6.81 5.55,-0.29 8.76,-5.6 11.1,-9.98 2.93,-4.92 2.82,-10.83 3.41,-16.34 -2.25,0.01 -4.49,0.03 -6.72,0.12 -3,2.47 -6.87,3.08 -10.57,3.66 0.08,-0.87 0.22,-1.74 0.33,-2.61 2.19,0.03 4.41,-0.02 6.56,-0.52 -2.14,-0.5 -4.27,-0.9 -6.42,-1.28 -0.64,1.06 -1.27,2.13 -1.89,3.21 -1.35,-0.83 -2.67,-1.65 -4,-2.49 -0.59,0 -1.77,0.02 -2.36,0.02 m 162.99,0.27 c 0.5,4.5 1.43,9.03 3.78,12.97 2.9,5.26 6.36,11.38 12.68,12.86 4.29,1.19 7.61,-2.7 9.48,-6.03 4.09,-6.09 4.36,-13.72 4.17,-20.81 -3.81,1.02 -7.71,0.07 -11.55,0.48 -4.39,0.49 -8.76,-0.44 -13.14,-0.01 -1.8,0.2 -3.89,-0.76 -5.42,0.54 m -427.61,-0.34 c 2.64,7.3 5.09,14.83 9.58,21.24 2.41,3.3 6.01,6.65 10.43,6.05 4.34,-0.97 6.89,-5.11 8.8,-8.79 2.76,-5.87 5.34,-12.01 5.78,-18.55 -1.86,0.02 -3.71,0.07 -5.56,0.15 -1.77,1.54 -3.7,2.87 -5.71,4.06 -2.56,0.07 -5.18,0.43 -7.7,-0.18 -2.07,-0.9 -3.75,-2.48 -5.41,-3.96 -3.41,-0.07 -6.81,-0.06 -10.21,-0.02 m 88.46,-0.01 c 2.99,7.32 5.48,16.38 13.14,20.16 3.2,1.95 6.82,-0.37 8.78,-2.98 3.83,-5.04 5.68,-11.22 7.57,-17.17 -9.83,-0.05 -19.66,-0.03 -29.49,-0.01 m 85.94,0.03 c 0.59,3.25 1.08,6.52 1.27,9.83 2.83,5.99 5.24,13.44 11.88,16.21 4.48,1.78 7.64,-2.91 9.43,-6.29 3.65,-5.94 3.08,-13.12 3.8,-19.78 -8.79,-0.02 -17.58,-0.06 -26.38,0.03 m 171.76,-0.02 c 2.35,6.58 4.6,13.75 9.94,18.58 3.41,3.01 8.52,1.67 11.36,-1.44 4.44,-4.8 6.63,-11.13 8.92,-17.13 -10.08,-0.06 -20.15,-0.05 -30.22,-0.01 m 21.14,20.03 c -3.58,3.01 -9.17,3.22 -12.7,0.03 -5.35,-4.81 -7.74,-11.88 -10.22,-18.42 1.19,6.48 0.63,13.29 3.09,19.51 2.32,6.25 4.85,12.92 10.39,17.07 2.26,-0.11 4.79,0.52 6.83,-0.78 2.72,-1.54 4.67,-4.11 6.26,-6.74 5.36,-9.52 8.96,-20.04 9.7,-30.98 l -1.97,0.52 c -3.2,6.84 -5.25,14.84 -11.38,19.79 m 148.09,-20.03 c 2.28,5.61 4.27,11.52 8.15,16.27 2.07,2.51 5.15,4.59 8.53,4.33 2.64,-0.43 4.64,-2.49 6.12,-4.6 3.3,-4.83 5.1,-10.47 6.86,-15.99 -9.89,-0.06 -19.78,-0.05 -29.66,-0.01 m 163.58,0 c 0.73,5.89 3.09,11.39 4.68,17.07 2.7,8.08 5.11,16.63 10.65,23.31 2.5,3.21 6.87,5.04 10.83,3.53 4.38,-2.31 6.7,-6.95 8.71,-11.24 3.08,-7.11 4.69,-14.72 7.29,-21.98 0.77,1.8 0.15,3.77 0.25,5.65 l -0.85,-0.14 c -0.08,0.64 -0.26,1.92 -0.35,2.57 -1.31,4.05 -2.56,8.12 -3.94,12.15 -2.54,5.61 -5.03,12.39 -11.24,14.82 -5.49,1.83 -10.89,-1.84 -13.79,-6.3 -4.62,-7 -7.54,-15.01 -9.66,-23.09 -0.64,5.22 0.72,10.35 1.06,15.53 2.49,21.24 4.57,42.56 8.05,63.67 1.45,8.43 2.98,16.9 5.75,25.02 1.28,3.52 2.66,7.44 6.15,9.35 4.02,-4.87 5.45,-11.15 6.92,-17.14 5.01,-22.33 6.9,-45.2 9.65,-67.87 0.63,-8.89 1.83,-17.73 2.53,-26.62 0.19,-3.34 2.18,-7.11 -0.19,-10.08 0.69,-2.76 1.39,-5.52 2.1,-8.27 -0.98,0.05 -2.94,0.14 -3.91,0.19 -2.06,6.02 -5.21,11.98 -10.23,16.05 -4.13,3.35 -10.54,3.3 -14.41,-0.45 -4.4,-4.19 -7.35,-9.84 -8.95,-15.66 -2.37,-0.08 -4.75,-0.1 -7.1,-0.07 m 7.72,0.04 c 1.89,5.8 4.72,11.64 9.48,15.62 3.47,3.06 9.06,2.85 12.66,0.11 5.15,-3.85 8.37,-9.75 10.34,-15.76 -10.83,-0.04 -21.66,-0.1 -32.48,0.03 M 79.04,213.32 c 2.04,13.56 4.36,27.18 8.6,40.27 1.61,4.26 3.15,8.94 6.77,11.95 2.1,1.77 5.1,0.41 6.51,-1.57 3.75,-4.98 5.27,-11.17 6.97,-17.06 1.73,-6.65 2.93,-13.41 4.21,-20.16 0.67,-4.3 1.83,-8.6 1.14,-12.99 -0.28,5 -4.02,8.52 -5.98,12.85 l -0.98,-0.22 c 0.02,0.73 0.07,2.18 0.09,2.91 -1.89,2.09 -3.63,4.49 -6.18,5.83 -2.37,0.75 -4.91,0.66 -7.37,0.71 3.08,-1.04 6.97,-0.13 9.35,-2.73 1.99,-1.8 4.09,-3.77 3.97,-6.74 -3.87,4.21 -10.75,5.4 -15.59,2.22 -1.71,-0.85 -3.28,-2.81 -5.38,-2.07 2.18,3.43 5.07,6.27 8.16,8.87 -5.22,-3.03 -9.61,-8.38 -9.78,-14.62 l -1.51,1.1 c 0.23,-0.58 0.67,-1.73 0.89,-2.31 l -1.16,-0.05 c -0.92,-2.07 -1.83,-4.13 -2.73,-6.19 m 85.19,9.78 c 2.34,18.04 4.71,36.12 8.68,53.88 1.79,7.21 3.5,14.73 8.08,20.76 3,-0.29 3.74,-3.57 4.9,-5.82 3.89,-11.93 5.53,-24.42 7.28,-36.79 0.99,-8.75 2.33,-17.48 2.73,-26.28 -2.14,5.24 -4.64,11.35 -10.1,13.93 -3.77,1.9 -8.38,0.45 -11.36,-2.25 -5.12,-4.61 -7.62,-11.23 -10.21,-17.43 m 631.87,8.98 c -0.4,1.26 -0.79,2.51 -1.17,3.76 -2.54,7.33 -5.24,15.86 -12.72,19.56 -1.51,-0.01 -3.01,-0.01 -4.51,0.01 -7.01,-4.67 -9.9,-13.39 -11.03,-21.35 -0.57,4.27 -0.44,8.6 0.33,12.84 1.86,12.52 3.46,25.13 6.86,37.35 1.29,4.57 2.83,9.23 6.06,12.83 3.91,-3.29 5.65,-8.23 7.23,-12.92 3.13,-9.84 4.99,-20.03 6.8,-30.18 1.09,-6.01 2.12,-12.02 2.92,-18.08 0.59,-2.96 1.02,-5.95 1.48,-8.94 -0.76,1.7 -1.52,3.41 -2.25,5.12 m -196.65,33.91 c 0.74,4.79 2.95,9.62 6.95,12.53 2.29,1.93 6.58,0.68 6.84,-2.51 2.32,-12.13 3.86,-24.39 5.37,-36.64 -2.67,2.46 -5.65,5.42 -9.58,5.29 -6.35,0.13 -11.76,-4.34 -14.82,-9.59 1.31,10.37 3.34,20.64 5.24,30.92 M 340.54,236.73 c 2.72,7.79 3.96,18.08 12.42,21.85 2.49,-1.15 5.38,-2.19 6.75,-4.76 1.06,-4.79 1.16,-9.73 1.89,-14.57 -2.21,2.6 -4.97,5.33 -8.62,5.36 -5.29,-0.02 -9.44,-3.91 -12.44,-7.88 m 439.44,7.01 c -4.67,0.61 -8.16,-2.94 -11.28,-5.81 1.28,5.6 3.48,11.5 7.96,15.31 3.59,2.84 8.05,-0.21 10.35,-3.23 2.87,-4.11 5.45,-8.72 5.99,-13.79 -3.19,3.96 -7.51,8.04 -13.02,7.52 m -342.07,0.95 c -3.21,0.11 -5.65,-2.27 -7.71,-4.4 2.12,17.27 3.44,34.87 8.81,51.52 6.87,-17.18 7.88,-35.89 11.23,-53.9 -3.24,3.44 -7.25,7.13 -12.33,6.78 m 86.2,12.52 c -6.08,-0.03 -10.47,-4.94 -13.22,-9.85 0.71,9.59 1.96,19.12 3.07,28.67 2.09,16.23 4.24,32.56 9.08,48.24 0.43,0.13 1.29,0.39 1.72,0.51 1.74,-4.48 3.21,-9.06 4.39,-13.72 4.63,-20.2 6.67,-40.87 9.82,-61.32 0.2,-1.94 0.3,-3.88 0.4,-5.82 -2.88,6.27 -7.85,12.66 -15.26,13.29 m -181.08,-0.94 c 2.26,12.46 3.81,25.29 9.12,36.91 4.45,-11.58 5.59,-24.07 7.39,-36.25 -2.55,2.33 -6.35,3.6 -9.61,2.03 -4.09,-2.48 -6.19,-7.14 -7.41,-11.58 -0.16,2.97 -0.1,5.97 0.51,8.89 m -59.51,-3.7 c -2.34,6.48 -4.47,13.47 -9.5,18.44 -2.65,2.79 -7.28,3.83 -10.59,1.61 -4.46,-2.69 -5.9,-7.97 -8.26,-12.27 -0.5,-0.26 -1.5,-0.79 -2,-1.06 0.21,4.27 0.33,8.55 0.78,12.8 2.32,27.68 4.34,55.43 8.88,82.87 1.35,5.94 1.84,12.33 5.04,17.66 2.79,-6.6 4.09,-13.68 5.36,-20.69 3.03,-17.56 4.74,-35.31 6.45,-53.03 1.35,-15.44 2.85,-30.87 3.84,-46.33 m 427.15,1.85 c -1.76,6.72 -4.07,13.52 -8.32,19.11 -2.51,3.41 -7.3,5.53 -11.33,3.55 -4.71,-2.62 -6.87,-7.96 -8.67,-12.75 l -0.74,0.4 c -0.22,-1.35 -0.45,-2.69 -0.7,-4.03 -0.07,1.69 0.11,3.38 0.36,5.05 0.46,4.68 0.08,9.42 1.02,14.05 0.76,15.41 2.39,30.76 3.5,46.15 2.23,18.42 3.12,37.24 8.55,55.09 1.82,-1.41 1.72,-4.19 2.53,-6.2 5.24,-21.59 7.04,-43.82 9.39,-65.85 1.56,-18.18 3.66,-36.34 4.41,-54.57 m -108.56,22.9 c 1.28,5.37 3.09,10.61 5.65,15.51 0.33,-0.17 0.98,-0.51 1.3,-0.68 1.11,-3.66 2.3,-7.31 2.95,-11.08 -0.83,0.07 -2.48,0.21 -3.31,0.28 -2.58,-0.64 -4.8,-2.09 -6.59,-4.03 z"
           id="path15" />
        <path
           fill="#312b2b"
           opacity="1"
           d="m 895.37,187.01 c 0.28,0.25 0.28,0.25 0,0 z"
           id="path17" />
      </g>
    </g>
    <g
       aria-label="TrackStack"
       transform="scale(1.0807429,0.92528944)"
       id="text38"
       style="font-size:34.5603px;line-height:1.25;font-family:MuseoModerno;-inkscape-font-specification:MuseoModerno;stroke-width:0.864007">
      <path
         d="m 26.221039,92.450928 q -1.969937,0 -3.42147,-0.829447 -1.416972,-0.864008 -2.211859,-2.31554 -0.760326,-1.486093 -0.760326,-3.317789 V 71.196344 H 12.46604 v -2.937626 h 18.040476 v 2.937626 h -7.361344 v 15.206531 q 0,1.347852 0.829447,2.24642 0.864008,0.864007 2.28098,0.864007 h 1.589774 v 2.937626 z"
         style="stroke-width:0.864007"
         id="path40" />
      <path
         d="M 28.882098,92.450928 V 79.836419 q 0,-2.350101 1.313292,-3.663392 1.347851,-1.347852 3.697952,-1.347852 h 3.628831 v 2.730264 h -3.041306 q -1.14049,0 -1.797136,0.656646 -0.622085,0.656645 -0.622085,1.831695 v 12.407148 z"
         style="stroke-width:0.864007"
         id="path42" />
      <path
         d="m 47.786541,92.865651 q -2.557462,0 -4.423718,-1.20961 -1.866256,-1.244171 -2.868505,-3.352349 -1.002248,-2.108178 -1.002248,-4.66564 0,-2.592023 1.105929,-4.665641 1.10593,-2.108178 3.179548,-3.317789 2.073618,-1.24417 4.976683,-1.24417 2.799384,0 4.803881,1.20961 2.004498,1.209611 3.075867,3.283229 1.10593,2.073617 1.10593,4.63108 v 8.916557 H 54.5258 v -3.594271 h -0.06912 q -0.518404,1.002248 -1.416972,1.935376 -0.864008,0.898568 -2.177299,1.486093 -1.313291,0.587525 -3.075867,0.587525 z m 0.829448,-2.730263 q 1.728015,0 3.041306,-0.829447 1.347852,-0.864008 2.073618,-2.350101 0.760326,-1.520653 0.760326,-3.386909 0,-1.831696 -0.725766,-3.283228 -0.691206,-1.451533 -2.004497,-2.28098 -1.313292,-0.864008 -3.075867,-0.864008 -1.866256,0 -3.214108,0.864008 -1.313291,0.864007 -2.039057,2.3501 -0.691206,1.451533 -0.691206,3.317789 0,1.797135 0.691206,3.283228 0.691206,1.451533 2.004497,2.31554 1.313291,0.864008 3.179548,0.864008 z"
         style="stroke-width:0.864007"
         id="path44" />
      <path
         d="m 71.322101,92.450928 q -2.730264,0 -4.873003,-1.17505 -2.142738,-1.175051 -3.386909,-3.144988 -1.244171,-2.004497 -1.244171,-4.492838 0,-2.488342 1.244171,-4.458279 1.244171,-2.004497 3.386909,-3.179548 2.142739,-1.17505 4.873003,-1.17505 h 2.073618 v 2.730264 H 71.21842 q -1.762576,0 -3.179548,0.829447 -1.382412,0.794887 -2.211859,2.177299 -0.794887,1.382412 -0.794887,3.075867 0,1.693454 0.794887,3.075866 0.829447,1.382412 2.211859,2.211859 1.416972,0.794887 3.179548,0.794887 h 2.177299 v 2.730264 z"
         style="stroke-width:0.864007"
         id="path46" />
      <path
         d="M 77.024507,92.450928 V 67.22191 h 3.179547 v 14.999169 h 4.838442 l 4.63108,-7.395904 h 3.525151 l -5.011244,7.879748 q 2.488342,0.725767 3.870754,2.730264 1.416972,1.969937 1.416972,4.59652 v 2.419221 h -3.214108 v -2.419221 q 0,-1.451533 -0.656645,-2.592023 -0.622086,-1.140489 -1.762576,-1.797135 -1.140489,-0.691206 -2.626582,-0.691206 h -5.011244 v 7.499585 z"
         style="stroke-width:0.864007"
         id="path48" />
      <path
         d="m 98.002557,92.450928 v -2.937626 h 10.471773 q 1.20961,0 2.07362,-0.552964 0.864,-0.587526 1.34785,-1.486093 0.48384,-0.898568 0.48384,-1.900817 0,-1.036809 -0.48384,-1.900816 -0.44929,-0.898568 -1.31329,-1.416972 -0.82945,-0.552965 -2.03906,-0.552965 h -4.56196 q -2.03906,0 -3.59427,-0.829447 -1.555216,-0.864008 -2.453784,-2.350101 -0.864007,-1.520653 -0.864007,-3.421469 0,-1.935377 0.829447,-3.490591 0.864008,-1.555213 2.384664,-2.453781 1.55521,-0.898568 3.55971,-0.898568 h 10.26441 v 2.937626 h -9.95337 q -1.14049,0 -2.0045,0.552965 -0.864,0.518404 -1.31329,1.382412 -0.44928,0.829447 -0.44928,1.797135 0,0.933128 0.41472,1.797136 0.44929,0.829447 1.27873,1.347851 0.86401,0.518405 1.96994,0.518405 h 4.66564 q 2.1773,0 3.73251,0.864007 1.55522,0.864008 2.38466,2.350101 0.82945,1.486093 0.82945,3.386909 0,2.108178 -0.86401,3.767073 -0.82944,1.624334 -2.38466,2.557462 -1.55521,0.933128 -3.55971,0.933128 z"
         style="stroke-width:0.864007"
         id="path50" />
      <path
         d="m 125.68531,92.450928 q -2.3501,0 -3.69795,-1.347852 -1.31329,-1.347852 -1.31329,-3.663392 V 70.401457 h 3.17955 v 16.830866 q 0,1.140489 0.62208,1.831695 0.65665,0.656646 1.79714,0.656646 h 3.55971 v 2.730264 z m -8.05254,-14.895489 v -2.730264 h 12.2689 v 2.730264 z"
         style="stroke-width:0.864007"
         id="path52" />
      <path
         d="m 140.51164,92.865651 q -2.55746,0 -4.42371,-1.20961 -1.86626,-1.244171 -2.86851,-3.352349 -1.00225,-2.108178 -1.00225,-4.66564 0,-2.592023 1.10593,-4.665641 1.10593,-2.108178 3.17955,-3.317789 2.07362,-1.24417 4.97668,-1.24417 2.79939,0 4.80388,1.20961 2.0045,1.209611 3.07587,3.283229 1.10593,2.073617 1.10593,4.63108 v 8.916557 h -3.21411 v -3.594271 h -0.0691 q -0.5184,1.002248 -1.41697,1.935376 -0.86401,0.898568 -2.1773,1.486093 -1.31329,0.587525 -3.07587,0.587525 z m 0.82945,-2.730263 q 1.72802,0 3.04131,-0.829447 1.34785,-0.864008 2.07362,-2.350101 0.76032,-1.520653 0.76032,-3.386909 0,-1.831696 -0.72576,-3.283228 -0.69121,-1.451533 -2.0045,-2.28098 -1.31329,-0.864008 -3.07587,-0.864008 -1.86625,0 -3.21411,0.864008 -1.31329,0.864007 -2.03905,2.3501 -0.69121,1.451533 -0.69121,3.317789 0,1.797135 0.69121,3.283228 0.6912,1.451533 2.00449,2.31554 1.3133,0.864008 3.17955,0.864008 z"
         style="stroke-width:0.864007"
         id="path54" />
      <path
         d="m 164.04721,92.450928 q -2.73027,0 -4.87301,-1.17505 -2.14273,-1.175051 -3.38691,-3.144988 -1.24417,-2.004497 -1.24417,-4.492838 0,-2.488342 1.24417,-4.458279 1.24418,-2.004497 3.38691,-3.179548 2.14274,-1.17505 4.87301,-1.17505 h 2.07361 v 2.730264 h -2.17729 q -1.76258,0 -3.17955,0.829447 -1.38241,0.794887 -2.21186,2.177299 -0.79489,1.382412 -0.79489,3.075867 0,1.693454 0.79489,3.075866 0.82945,1.382412 2.21186,2.211859 1.41697,0.794887 3.17955,0.794887 h 2.17729 v 2.730264 z"
         style="stroke-width:0.864007"
         id="path56" />
      <path
         d="M 169.74961,92.450928 V 67.22191 h 3.17955 v 14.999169 h 4.83844 l 4.63108,-7.395904 h 3.52515 l -5.01124,7.879748 q 2.48834,0.725767 3.87075,2.730264 1.41697,1.969937 1.41697,4.59652 v 2.419221 h -3.2141 v -2.419221 q 0,-1.451533 -0.65665,-2.592023 -0.62208,-1.140489 -1.76257,-1.797135 -1.14049,-0.691206 -2.62659,-0.691206 h -5.01124 v 7.499585 z"
         style="stroke-width:0.864007"
         id="path58" />
    </g>
  </g>
</svg>
