<?xml version="1.0" encoding="UTF-8" ?>
<!DOCTYPE svg PUBLIC "-//W3C//DTD SVG 1.1//EN" "http://www.w3.org/Graphics/SVG/1.1/DTD/svg11.dtd">
<svg width="1059pt" height="132pt" viewBox="0 0 1059 132" version="1.1" xmlns="http://www.w3.org/2000/svg">
<g id="#ffffffff">
<path fill="#ffffff" opacity="1.00" d=" M 365.00 1.00 L 366.00 1.00 C 366.00 43.66 366.00 86.33 366.00 129.00 L 365.00 129.01 C 365.00 113.67 365.00 98.33 365.00 83.00 C 365.00 71.00 365.00 59.00 365.00 47.00 C 365.00 31.67 365.00 16.33 365.00 1.00 Z" />
<path fill="#ffffff" opacity="1.00" d=" M 455.00 40.00 C 455.75 40.00 457.25 40.00 458.00 40.00 C 458.00 56.67 458.00 73.33 458.00 90.00 C 457.25 90.00 455.75 90.00 455.00 90.00 C 455.00 73.33 455.00 56.67 455.00 40.00 Z" />
<path fill="#ffffff" opacity="1.00" d=" M 427.00 41.00 C 427.75 41.00 429.25 41.00 430.00 41.00 C 430.00 57.00 430.00 73.00 430.00 89.00 C 429.25 89.00 427.75 89.00 427.00 89.00 C 427.00 73.00 427.00 57.00 427.00 41.00 Z" />
<path fill="#ffffff" opacity="1.00" d=" M 547.00 42.00 C 547.75 42.00 549.25 42.00 550.00 42.00 C 550.00 57.33 550.00 72.67 550.00 88.00 C 549.25 88.00 547.75 88.00 547.00 88.00 C 547.00 72.67 547.00 57.33 547.00 42.00 Z" />
<path fill="#ffffff" opacity="1.00" d=" M 399.00 43.00 C 399.75 43.00 401.25 43.00 402.00 43.00 C 402.00 57.67 402.00 72.33 402.00 87.00 C 401.25 87.00 399.75 87.00 399.00 87.00 C 399.00 72.33 399.00 57.67 399.00 43.00 Z" />
<path fill="#ffffff" opacity="1.00" d=" M 463.00 43.00 C 463.75 43.00 465.25 43.00 466.00 43.00 C 466.00 57.67 466.00 72.33 466.00 87.00 C 465.25 87.00 463.75 87.00 463.00 87.00 C 463.00 72.33 463.00 57.67 463.00 43.00 Z" />
<path fill="#ffffff" opacity="1.00" d=" M 527.00 43.00 C 527.75 43.00 529.25 43.00 530.00 43.00 C 530.00 57.67 530.00 72.33 530.00 87.00 C 529.25 87.00 527.75 87.00 527.00 87.00 C 527.00 72.33 527.00 57.67 527.00 43.00 Z" />
<path fill="#ffffff" opacity="1.00" d=" M 479.00 44.00 C 479.75 44.00 481.25 44.00 482.00 44.00 C 482.00 58.00 482.00 72.00 482.00 86.00 C 481.25 86.00 479.75 86.00 479.00 86.00 C 479.00 72.00 479.00 58.00 479.00 44.00 Z" />
<path fill="#ffffff" opacity="1.00" d=" M 555.00 44.00 C 555.75 44.00 557.25 44.00 558.00 44.00 C 558.00 58.00 558.00 72.00 558.00 86.00 C 557.25 86.00 555.75 86.00 555.00 86.00 C 555.00 72.00 555.00 58.00 555.00 44.00 Z" />
<path fill="#ffffff" opacity="1.00" d=" M 579.00 44.00 C 579.75 44.00 581.25 44.00 582.00 44.00 C 582.00 58.00 582.00 72.00 582.00 86.00 C 581.25 86.00 579.75 86.00 579.00 86.00 C 579.00 72.00 579.00 58.00 579.00 44.00 Z" />
<path fill="#ffffff" opacity="1.00" d=" M 539.00 45.00 C 539.75 45.00 541.25 45.00 542.00 45.00 C 542.00 58.33 542.00 71.67 542.00 85.00 C 541.25 85.00 539.75 85.00 539.00 85.00 C 539.00 71.67 539.00 58.33 539.00 45.00 Z" />
<path fill="#ffffff" opacity="1.00" d=" M 483.00 46.00 C 483.75 46.00 485.25 46.00 486.00 46.00 C 486.00 58.67 486.00 71.33 486.00 84.00 C 485.25 84.00 483.75 84.00 483.00 84.00 C 483.00 71.33 483.00 58.67 483.00 46.00 Z" />
<path fill="#ffffff" opacity="1.00" d=" M 383.00 47.00 C 383.75 47.00 385.25 47.00 386.00 47.00 C 386.00 59.00 386.00 71.00 386.00 83.00 C 385.25 83.00 383.75 83.00 383.00 83.00 C 383.00 71.00 383.00 59.00 383.00 47.00 Z" />
<path fill="#ffffff" opacity="1.00" d=" M 451.00 47.00 C 451.75 47.00 453.25 47.00 454.00 47.00 C 454.00 59.00 454.00 71.00 454.00 83.00 C 453.25 83.00 451.75 83.00 451.00 83.00 C 451.00 71.00 451.00 59.00 451.00 47.00 Z" />
<path fill="#ffffff" opacity="1.00" d=" M 503.00 47.00 C 503.75 47.00 505.25 47.00 506.00 47.00 C 506.00 59.00 506.00 71.00 506.00 83.00 C 505.25 83.00 503.75 83.00 503.00 83.00 C 503.00 71.00 503.00 59.00 503.00 47.00 Z" />
<path fill="#ffffff" opacity="1.00" d=" M 403.00 48.00 C 403.75 48.00 405.25 48.00 406.00 48.00 C 406.00 59.33 406.00 70.67 406.00 82.00 C 405.25 82.00 403.75 82.00 403.00 82.00 C 403.00 70.67 403.00 59.33 403.00 48.00 Z" />
<path fill="#ffffff" opacity="1.00" d=" M 371.00 49.00 C 371.75 49.00 373.25 49.00 374.00 49.00 C 374.00 59.67 374.00 70.33 374.00 81.00 C 373.25 81.00 371.75 81.00 371.00 81.00 C 371.00 70.33 371.00 59.67 371.00 49.00 Z" />
<path fill="#ffffff" opacity="1.00" d=" M 471.00 49.00 C 471.75 49.00 473.25 49.00 474.00 49.00 C 474.00 59.67 474.00 70.33 474.00 81.00 C 473.25 81.00 471.75 81.00 471.00 81.00 C 471.00 70.33 471.00 59.67 471.00 49.00 Z" />
<path fill="#ffffff" opacity="1.00" d=" M 507.00 49.00 C 507.75 49.00 509.25 49.00 510.00 49.00 C 510.00 59.67 510.00 70.33 510.00 81.00 C 509.25 81.00 507.75 81.00 507.00 81.00 C 507.00 70.33 507.00 59.67 507.00 49.00 Z" />
<path fill="#ffffff" opacity="1.00" d=" M 639.00 49.00 C 639.75 49.00 641.25 49.00 642.00 49.00 C 642.00 59.67 642.00 70.33 642.00 81.00 C 641.25 81.00 639.75 81.00 639.00 81.00 C 639.00 70.33 639.00 59.67 639.00 49.00 Z" />
<path fill="#ffffff" opacity="1.00" d=" M 367.00 50.00 C 367.75 50.00 369.25 50.00 370.00 50.00 C 370.00 60.00 370.00 70.00 370.00 80.00 C 369.25 80.00 367.75 80.00 367.00 80.00 C 367.00 70.00 367.00 60.00 367.00 50.00 Z" />
<path fill="#ffffff" opacity="1.00" d=" M 375.00 50.00 C 375.75 50.00 377.25 50.00 378.00 50.00 C 378.00 60.00 378.00 70.00 378.00 80.00 C 377.25 80.00 375.75 80.00 375.00 80.00 C 375.00 70.00 375.00 60.00 375.00 50.00 Z" />
<path fill="#ffffff" opacity="1.00" d=" M 395.00 50.00 C 395.75 50.00 397.25 50.00 398.00 50.00 C 398.00 60.00 398.00 70.00 398.00 80.00 C 397.25 80.00 395.75 80.00 395.00 80.00 C 395.00 70.00 395.00 60.00 395.00 50.00 Z" />
<path fill="#ffffff" opacity="1.00" d=" M 467.00 50.00 C 467.75 50.00 469.25 50.00 470.00 50.00 C 470.00 60.00 470.00 70.00 470.00 80.00 C 469.25 80.00 467.75 80.00 467.00 80.00 C 467.00 70.00 467.00 60.00 467.00 50.00 Z" />
<path fill="#ffffff" opacity="1.00" d=" M 519.00 50.00 C 519.75 50.00 521.25 50.00 522.00 50.00 C 522.00 60.00 522.00 70.00 522.00 80.00 C 521.25 80.00 519.75 80.00 519.00 80.00 C 519.00 70.00 519.00 60.00 519.00 50.00 Z" />
<path fill="#ffffff" opacity="1.00" d=" M 531.00 50.00 C 531.75 50.00 533.25 50.00 534.00 50.00 C 534.00 60.00 534.00 70.00 534.00 80.00 C 533.25 80.00 531.75 80.00 531.00 80.00 C 531.00 70.00 531.00 60.00 531.00 50.00 Z" />
<path fill="#ffffff" opacity="1.00" d=" M 551.00 50.00 C 551.75 50.00 553.25 50.00 554.00 50.00 C 554.00 60.00 554.00 70.00 554.00 80.00 C 553.25 80.00 551.75 80.00 551.00 80.00 C 551.00 70.00 551.00 60.00 551.00 50.00 Z" />
<path fill="#ffffff" opacity="1.00" d=" M 567.00 50.00 C 567.75 50.00 569.25 50.00 570.00 50.00 C 570.00 60.00 570.00 70.00 570.00 80.00 C 569.25 80.00 567.75 80.00 567.00 80.00 C 567.00 70.00 567.00 60.00 567.00 50.00 Z" />
<path fill="#ffffff" opacity="1.00" d=" M 571.00 50.00 C 571.75 50.00 573.25 50.00 574.00 50.00 C 574.00 60.00 574.00 70.00 574.00 80.00 C 573.25 80.00 571.75 80.00 571.00 80.00 C 571.00 70.00 571.00 60.00 571.00 50.00 Z" />
<path fill="#ffffff" opacity="1.00" d=" M 575.00 50.00 C 575.75 50.00 577.25 50.00 578.00 50.00 C 578.00 60.00 578.00 70.00 578.00 80.00 C 577.25 80.00 575.75 80.00 575.00 80.00 C 575.00 70.00 575.00 60.00 575.00 50.00 Z" />
<path fill="#ffffff" opacity="1.00" d=" M 635.00 50.00 C 635.75 50.00 637.25 50.00 638.00 50.00 C 638.00 60.00 638.00 70.00 638.00 80.00 C 637.25 80.00 635.75 80.00 635.00 80.00 C 635.00 70.00 635.00 60.00 635.00 50.00 Z" />
<path fill="#ffffff" opacity="1.00" d=" M 435.00 51.00 C 435.75 51.00 437.25 51.00 438.00 51.00 C 438.00 60.33 438.00 69.67 438.00 79.00 C 437.25 79.00 435.75 79.00 435.00 79.00 C 435.00 69.67 435.00 60.33 435.00 51.00 Z" />
<path fill="#ffffff" opacity="1.00" d=" M 459.00 51.00 C 459.75 51.00 461.25 51.00 462.00 51.00 C 462.00 60.33 462.00 69.67 462.00 79.00 C 461.25 79.00 459.75 79.00 459.00 79.00 C 459.00 69.67 459.00 60.33 459.00 51.00 Z" />
<path fill="#ffffff" opacity="1.00" d=" M 475.00 51.00 C 475.75 51.00 477.25 51.00 478.00 51.00 C 478.00 60.33 478.00 69.67 478.00 79.00 C 477.25 79.00 475.75 79.00 475.00 79.00 C 475.00 69.67 475.00 60.33 475.00 51.00 Z" />
<path fill="#ffffff" opacity="1.00" d=" M 563.00 51.00 C 563.75 51.00 565.25 51.00 566.00 51.00 C 566.00 60.33 566.00 69.67 566.00 79.00 C 565.25 79.00 563.75 79.00 563.00 79.00 C 563.00 69.67 563.00 60.33 563.00 51.00 Z" />
<path fill="#ffffff" opacity="1.00" d=" M 671.00 51.00 C 671.75 51.00 673.25 51.00 674.00 51.00 C 674.00 60.33 674.00 69.67 674.00 79.00 C 673.25 79.00 671.75 79.00 671.00 79.00 C 671.00 69.67 671.00 60.33 671.00 51.00 Z" />
<path fill="#ffffff" opacity="1.00" d=" M 407.00 52.00 C 407.75 52.00 409.25 52.00 410.00 52.00 C 410.00 60.67 410.00 69.33 410.00 78.00 C 409.25 78.00 407.75 78.00 407.00 78.00 C 407.00 69.33 407.00 60.67 407.00 52.00 Z" />
<path fill="#ffffff" opacity="1.00" d=" M 431.00 52.00 C 431.75 52.00 433.25 52.00 434.00 52.00 C 434.00 60.67 434.00 69.33 434.00 78.00 C 433.25 78.00 431.75 78.00 431.00 78.00 C 431.00 69.33 431.00 60.67 431.00 52.00 Z" />
<path fill="#ffffff" opacity="1.00" d=" M 447.00 52.00 C 447.75 52.00 449.25 52.00 450.00 52.00 C 450.00 60.67 450.00 69.33 450.00 78.00 C 449.25 78.00 447.75 78.00 447.00 78.00 C 447.00 69.33 447.00 60.67 447.00 52.00 Z" />
<path fill="#ffffff" opacity="1.00" d=" M 487.00 52.00 C 487.75 52.00 489.25 52.00 490.00 52.00 C 490.00 60.67 490.00 69.33 490.00 78.00 C 489.25 78.00 487.75 78.00 487.00 78.00 C 487.00 69.33 487.00 60.67 487.00 52.00 Z" />
<path fill="#ffffff" opacity="1.00" d=" M 523.00 52.00 C 523.75 52.00 525.25 52.00 526.00 52.00 C 526.00 60.67 526.00 69.33 526.00 78.00 C 525.25 78.00 523.75 78.00 523.00 78.00 C 523.00 69.33 523.00 60.67 523.00 52.00 Z" />
<path fill="#ffffff" opacity="1.00" d=" M 583.00 52.00 C 583.75 52.00 585.25 52.00 586.00 52.00 C 586.00 60.67 586.00 69.33 586.00 78.00 C 585.25 78.00 583.75 78.00 583.00 78.00 C 583.00 69.33 583.00 60.67 583.00 52.00 Z" />
<path fill="#ffffff" opacity="1.00" d=" M 378.99 53.00 C 379.75 53.00 381.25 53.00 382.00 53.00 C 382.00 61.00 382.00 69.00 382.00 77.00 C 381.25 77.00 379.75 77.00 379.00 77.00 C 379.00 69.00 379.00 61.00 378.99 53.00 Z" />
<path fill="#ffffff" opacity="1.00" d=" M 391.00 53.00 C 391.75 53.00 393.25 53.00 394.00 53.00 C 394.00 61.00 394.00 69.00 394.00 77.00 C 393.25 77.00 391.75 77.00 391.00 77.00 C 391.00 69.00 391.00 61.00 391.00 53.00 Z" />
<path fill="#ffffff" opacity="1.00" d=" M 490.99 53.00 C 491.75 53.00 493.25 53.00 494.00 53.00 C 494.00 61.00 494.00 69.00 494.00 77.00 C 493.25 77.00 491.75 77.00 490.99 77.00 C 491.00 69.00 491.00 61.00 490.99 53.00 Z" />
<path fill="#ffffff" opacity="1.00" d=" M 543.00 53.00 C 543.75 53.00 545.25 53.00 546.00 53.00 C 546.00 61.00 546.00 69.00 546.00 77.00 C 545.25 77.00 543.75 77.00 543.00 77.00 C 543.00 69.00 543.00 61.00 543.00 53.00 Z" />
<path fill="#ffffff" opacity="1.00" d=" M 595.00 53.00 C 595.75 53.00 597.25 53.00 598.00 53.00 C 598.00 61.00 598.00 69.00 598.00 77.00 C 597.25 77.00 595.75 77.00 595.00 77.00 C 595.00 69.00 595.00 61.00 595.00 53.00 Z" />
<path fill="#ffffff" opacity="1.00" d=" M 603.00 53.00 C 603.75 53.00 605.25 53.00 606.00 53.00 C 606.00 61.00 606.00 69.00 606.00 77.00 C 605.25 77.00 603.75 77.00 603.00 77.00 C 603.00 69.00 603.00 61.00 603.00 53.00 Z" />
<path fill="#ffffff" opacity="1.00" d=" M 623.00 53.00 C 623.75 53.00 625.25 53.00 626.00 53.00 C 626.00 61.00 626.00 69.00 626.00 77.00 C 625.25 77.00 623.75 77.00 623.00 77.00 C 623.00 69.00 623.00 61.00 623.00 53.00 Z" />
<path fill="#ffffff" opacity="1.00" d=" M 647.00 53.00 C 647.75 53.00 649.25 53.00 650.00 53.00 C 650.00 61.00 650.00 69.00 650.00 77.00 C 649.25 77.00 647.75 77.00 647.00 77.00 C 647.00 69.00 647.00 61.00 647.00 53.00 Z" />
<path fill="#ffffff" opacity="1.00" d=" M 415.00 54.00 C 415.75 54.00 417.25 54.00 418.00 54.00 C 418.00 61.33 418.00 68.67 418.00 76.00 C 417.25 76.00 415.75 76.00 415.00 76.00 C 415.00 68.67 415.00 61.33 415.00 54.00 Z" />
<path fill="#ffffff" opacity="1.00" d=" M 495.00 54.00 C 495.75 54.00 497.25 54.00 498.00 54.00 C 498.00 61.33 498.00 68.67 498.00 76.00 C 497.25 76.00 495.75 76.00 495.00 76.00 C 495.00 68.67 495.00 61.33 495.00 54.00 Z" />
<path fill="#ffffff" opacity="1.00" d=" M 535.00 54.00 C 535.75 54.00 537.25 54.00 538.00 54.00 C 538.00 61.33 538.00 68.67 538.00 76.00 C 537.25 76.00 535.75 76.00 535.00 76.00 C 535.00 68.67 535.00 61.33 535.00 54.00 Z" />
<path fill="#ffffff" opacity="1.00" d=" M 587.00 54.00 C 587.75 54.00 589.25 54.00 590.00 54.00 C 590.00 61.33 590.00 68.67 590.00 76.00 C 589.25 76.00 587.75 76.00 587.00 76.00 C 587.00 68.67 587.00 61.33 587.00 54.00 Z" />
<path fill="#ffffff" opacity="1.00" d=" M 591.00 54.00 C 591.75 54.00 593.25 54.00 594.00 54.00 C 594.00 61.33 593.99 68.67 594.00 76.00 C 593.25 76.00 591.75 76.00 591.00 76.00 C 591.00 68.67 591.00 61.33 591.00 54.00 Z" />
<path fill="#ffffff" opacity="1.00" d=" M 607.00 54.00 C 607.75 54.00 609.25 54.00 610.00 54.00 C 610.00 61.33 610.00 68.67 610.00 76.00 C 609.25 76.00 607.75 76.00 607.00 76.00 C 607.00 68.67 607.00 61.33 607.00 54.00 Z" />
<path fill="#ffffff" opacity="1.00" d=" M 611.00 54.00 C 611.75 54.00 613.25 54.00 614.00 54.00 C 614.00 61.33 614.00 68.67 614.00 76.00 C 613.25 76.00 611.75 76.00 611.00 76.00 C 611.00 68.67 611.00 61.33 611.00 54.00 Z" />
<path fill="#ffffff" opacity="1.00" d=" M 631.00 54.00 C 631.75 54.00 633.25 54.00 634.00 54.00 C 634.00 61.33 634.00 68.67 634.00 76.00 C 633.25 76.00 631.75 76.00 631.00 76.00 C 631.00 68.67 631.00 61.33 631.00 54.00 Z" />
<path fill="#ffffff" opacity="1.00" d=" M 699.00 54.00 C 699.75 54.00 701.25 54.00 702.00 54.00 C 701.99 61.33 702.00 68.67 702.00 76.00 C 701.25 76.00 699.75 76.00 699.00 76.00 C 699.00 68.67 699.00 61.33 699.00 54.00 Z" />
<path fill="#ffffff" opacity="1.00" d=" M 387.00 55.00 C 387.75 55.00 389.25 55.00 390.00 55.00 C 390.00 61.67 390.00 68.33 390.00 75.00 C 389.25 75.00 387.75 75.00 387.00 75.00 C 387.00 68.33 387.00 61.67 387.00 55.00 Z" />
<path fill="#ffffff" opacity="1.00" d=" M 411.00 55.00 C 411.75 55.00 413.25 55.00 414.00 55.00 C 414.00 61.67 414.00 68.33 414.00 75.00 C 413.25 75.00 411.75 75.00 411.00 75.00 C 411.00 68.33 411.00 61.67 411.00 55.00 Z" />
<path fill="#ffffff" opacity="1.00" d=" M 419.00 55.00 C 419.75 55.00 421.25 55.00 422.00 55.00 C 422.00 61.67 422.00 68.33 422.00 75.00 C 421.25 75.00 419.75 75.00 419.00 75.00 C 419.00 68.33 419.00 61.67 419.00 55.00 Z" />
<path fill="#ffffff" opacity="1.00" d=" M 499.00 55.00 C 499.75 55.00 501.25 55.00 502.00 55.00 C 502.00 61.67 502.00 68.33 502.00 75.00 C 501.25 75.00 499.75 75.00 499.00 75.00 C 499.00 68.33 499.00 61.67 499.00 55.00 Z" />
<path fill="#ffffff" opacity="1.00" d=" M 515.00 55.00 C 515.75 55.00 517.25 55.00 518.00 55.00 C 518.00 61.67 518.00 68.33 518.00 75.00 C 517.25 75.00 515.75 75.00 515.00 75.00 C 515.00 68.33 515.00 61.67 515.00 55.00 Z" />
<path fill="#ffffff" opacity="1.00" d=" M 599.00 55.00 C 599.75 55.00 601.25 55.00 602.00 55.00 C 602.00 61.67 602.00 68.33 602.00 75.00 C 601.25 75.00 599.75 75.00 599.00 75.00 C 599.00 68.33 599.00 61.67 599.00 55.00 Z" />
<path fill="#ffffff" opacity="1.00" d=" M 643.00 55.00 C 643.75 55.00 645.25 55.00 646.00 55.00 C 646.00 61.67 646.00 68.33 646.00 75.00 C 645.25 75.00 643.75 75.00 643.00 75.00 C 643.00 68.33 643.00 61.67 643.00 55.00 Z" />
<path fill="#ffffff" opacity="1.00" d=" M 675.00 55.00 C 675.75 55.00 677.25 55.00 678.00 55.00 C 678.00 61.67 678.00 68.33 678.00 75.00 C 677.25 75.00 675.75 75.00 675.00 75.00 C 675.00 68.33 675.00 61.67 675.00 55.00 Z" />
<path fill="#ffffff" opacity="1.00" d=" M 855.00 55.00 C 855.75 55.00 857.25 55.00 858.00 55.00 C 857.99 61.67 857.99 68.33 858.00 75.00 C 857.25 75.00 855.75 75.00 855.00 75.00 C 855.00 68.33 855.00 61.67 855.00 55.00 Z" />
<path fill="#ffffff" opacity="1.00" d=" M 859.00 55.00 C 859.75 55.00 861.25 55.00 862.00 55.00 C 862.00 61.67 862.00 68.33 862.00 75.00 C 861.25 75.00 859.75 75.00 859.00 75.00 C 859.00 68.33 859.00 61.67 859.00 55.00 Z" />
<path fill="#ffffff" opacity="1.00" d=" M 867.00 55.00 C 867.75 55.00 869.25 55.00 870.00 55.00 C 869.99 61.67 869.99 68.33 870.00 75.00 C 869.25 75.00 867.75 75.00 867.00 75.00 C 867.00 68.33 867.00 61.67 867.00 55.00 Z" />
<path fill="#ffffff" opacity="1.00" d=" M 895.00 55.00 C 895.75 55.00 897.25 55.00 898.00 55.00 C 897.99 61.67 897.99 68.33 898.00 75.00 C 897.25 75.00 895.75 75.00 895.00 75.00 C 895.00 68.33 895.00 61.67 895.00 55.00 Z" />
<path fill="#ffffff" opacity="1.00" d=" M 911.00 55.00 C 911.75 55.00 913.25 55.00 914.00 55.00 C 913.99 61.67 913.99 68.33 914.00 75.00 C 913.25 75.00 911.75 75.00 911.00 75.00 C 911.00 68.33 911.00 61.67 911.00 55.00 Z" />
<path fill="#ffffff" opacity="1.00" d=" M 915.00 55.00 C 915.75 55.00 917.25 55.00 918.00 55.00 C 917.99 61.67 917.99 68.33 918.00 75.00 C 917.25 75.00 915.75 75.00 915.00 75.00 C 915.00 68.33 915.00 61.67 915.00 55.00 Z" />
<path fill="#ffffff" opacity="1.00" d=" M 919.00 55.00 C 919.75 55.00 921.25 55.00 922.00 55.00 C 921.99 61.67 921.99 68.33 922.00 75.00 C 921.25 75.00 919.75 75.00 919.00 75.00 C 919.00 68.33 919.00 61.67 919.00 55.00 Z" />
<path fill="#ffffff" opacity="1.00" d=" M 923.00 55.00 C 923.75 55.00 925.25 55.00 926.00 55.00 C 926.00 61.67 926.00 68.33 926.00 75.00 C 925.25 75.00 923.75 75.00 923.00 75.00 C 923.00 68.33 923.00 61.67 923.00 55.00 Z" />
<path fill="#ffffff" opacity="1.00" d=" M 423.00 56.00 C 423.75 56.00 425.25 56.00 426.00 56.00 C 426.00 62.00 426.00 68.00 426.00 74.00 C 425.25 74.00 423.75 74.00 423.00 74.00 C 423.00 68.00 423.00 62.00 423.00 56.00 Z" />
<path fill="#ffffff" opacity="1.00" d=" M 615.00 56.00 C 615.75 56.00 617.25 56.00 618.00 56.00 C 618.00 62.00 618.00 68.00 618.00 74.00 C 617.25 74.00 615.75 74.00 615.00 74.00 C 615.00 68.00 615.00 62.00 615.00 56.00 Z" />
<path fill="#ffffff" opacity="1.00" d=" M 651.00 56.00 C 651.75 56.00 653.25 56.00 654.00 56.00 C 654.00 62.00 654.00 68.00 654.00 74.00 C 653.25 74.00 651.75 74.00 651.00 74.00 C 651.00 68.00 651.00 62.00 651.00 56.00 Z" />
<path fill="#ffffff" opacity="1.00" d=" M 655.00 56.00 C 655.75 56.00 657.25 56.00 658.00 56.00 C 658.00 62.00 658.00 68.00 658.00 74.00 C 657.25 74.00 655.75 74.00 655.00 74.00 C 655.00 68.00 655.00 62.00 655.00 56.00 Z" />
<path fill="#ffffff" opacity="1.00" d=" M 659.00 56.00 C 659.75 56.00 661.25 56.00 662.00 56.00 C 662.00 62.00 662.00 68.00 662.00 74.00 C 661.25 74.00 659.75 74.00 659.00 74.00 C 659.00 68.00 659.00 62.00 659.00 56.00 Z" />
<path fill="#ffffff" opacity="1.00" d=" M 703.00 56.00 C 703.75 56.00 705.25 56.00 706.00 56.00 C 705.99 62.00 705.99 68.00 706.00 74.00 C 705.25 74.00 703.75 74.00 703.00 74.00 C 703.00 68.00 703.00 62.00 703.00 56.00 Z" />
<path fill="#ffffff" opacity="1.00" d=" M 715.00 56.00 C 715.75 56.00 717.25 56.00 718.00 56.00 C 717.99 62.00 717.99 68.00 718.00 74.00 C 717.25 74.00 715.75 74.00 715.00 74.00 C 715.00 68.00 715.00 62.00 715.00 56.00 Z" />
<path fill="#ffffff" opacity="1.00" d=" M 723.00 56.00 C 723.75 56.00 725.25 56.00 726.00 56.00 C 726.00 62.00 726.00 68.00 726.00 74.00 C 725.25 74.00 723.75 74.00 723.00 74.00 C 723.00 68.00 723.00 62.00 723.00 56.00 Z" />
<path fill="#ffffff" opacity="1.00" d=" M 827.00 56.00 C 827.75 56.00 829.25 56.00 830.00 56.00 C 829.99 62.00 829.99 68.00 830.00 74.00 C 829.25 74.00 827.75 74.00 827.00 74.00 C 827.00 68.00 827.00 62.00 827.00 56.00 Z" />
<path fill="#ffffff" opacity="1.00" d=" M 831.00 56.00 C 831.75 56.00 833.25 56.00 834.00 56.00 C 833.99 62.00 833.99 68.00 834.00 74.00 C 833.25 74.00 831.75 74.00 831.00 74.00 C 831.00 68.00 831.00 62.00 831.00 56.00 Z" />
<path fill="#ffffff" opacity="1.00" d=" M 835.00 56.00 C 835.75 56.00 837.25 56.00 838.00 56.00 C 837.99 62.00 837.99 68.00 838.00 74.00 C 837.25 74.00 835.75 74.00 835.00 74.00 C 835.00 68.00 835.00 62.00 835.00 56.00 Z" />
<path fill="#ffffff" opacity="1.00" d=" M 839.00 56.00 C 839.75 56.00 841.25 56.00 842.00 56.00 C 842.00 62.00 842.00 68.00 842.00 74.00 C 841.25 74.00 839.75 74.00 839.00 74.00 C 839.00 68.00 839.00 62.00 839.00 56.00 Z" />
<path fill="#ffffff" opacity="1.00" d=" M 851.00 56.00 C 851.75 56.00 853.25 56.00 854.00 56.00 C 853.99 62.00 853.99 68.00 854.00 74.00 C 853.25 74.00 851.75 74.00 851.00 74.00 C 851.00 68.00 851.00 62.00 851.00 56.00 Z" />
<path fill="#ffffff" opacity="1.00" d=" M 871.00 56.00 C 871.75 56.00 873.25 56.00 874.00 56.00 C 873.99 62.00 873.99 68.00 874.00 74.00 C 873.25 74.00 871.75 74.00 871.00 74.00 C 871.00 68.00 871.00 62.00 871.00 56.00 Z" />
<path fill="#ffffff" opacity="1.00" d=" M 875.00 56.00 C 875.75 56.00 877.25 56.00 878.00 56.00 C 877.99 62.00 877.99 68.00 878.00 74.00 C 877.25 74.00 875.75 74.00 875.00 74.00 C 875.00 68.00 875.00 62.00 875.00 56.00 Z" />
<path fill="#ffffff" opacity="1.00" d=" M 879.00 56.00 C 879.75 56.00 881.25 56.00 882.00 56.00 C 881.99 62.00 881.99 68.00 882.00 74.00 C 881.25 74.00 879.75 74.00 879.00 74.00 C 879.00 68.00 879.00 62.00 879.00 56.00 Z" />
<path fill="#ffffff" opacity="1.00" d=" M 883.00 56.00 C 883.75 56.00 885.25 56.00 886.00 56.00 C 885.99 62.00 885.99 68.00 886.00 74.00 C 885.25 74.00 883.75 74.00 883.00 74.00 C 883.00 68.00 883.00 62.00 883.00 56.00 Z" />
<path fill="#ffffff" opacity="1.00" d=" M 887.00 56.00 C 887.75 56.00 889.25 56.00 890.00 56.00 C 889.99 62.00 889.99 68.00 890.00 74.00 C 889.25 74.00 887.75 74.00 887.00 74.00 C 887.00 68.00 887.00 62.00 887.00 56.00 Z" />
<path fill="#ffffff" opacity="1.00" d=" M 891.00 56.00 C 891.75 56.00 893.25 56.00 894.00 56.00 C 893.99 62.00 893.99 68.00 894.00 74.00 C 893.25 74.00 891.75 74.00 891.00 74.00 C 891.00 68.00 891.00 62.00 891.00 56.00 Z" />
<path fill="#ffffff" opacity="1.00" d=" M 899.00 56.00 C 899.75 56.00 901.25 56.00 902.00 56.00 C 902.00 62.00 901.99 68.00 902.00 74.00 C 901.25 74.00 899.75 74.00 899.00 74.00 C 899.00 68.00 899.00 62.00 899.00 56.00 Z" />
<path fill="#ffffff" opacity="1.00" d=" M 510.99 57.00 C 511.75 57.00 513.25 57.00 514.01 57.00 C 513.99 62.33 513.99 67.67 514.01 73.00 C 513.25 73.00 511.75 73.00 510.99 73.00 C 511.00 67.67 511.00 62.33 510.99 57.00 Z" />
<path fill="#ffffff" opacity="1.00" d=" M 678.99 57.00 C 679.75 57.00 681.25 57.00 682.01 57.00 C 681.99 62.33 681.99 67.67 682.01 73.00 C 681.25 73.00 679.75 73.00 678.99 73.00 C 679.00 67.67 679.00 62.33 678.99 57.00 Z" />
<path fill="#ffffff" opacity="1.00" d=" M 682.99 57.00 C 683.75 57.00 685.25 57.00 686.01 57.00 C 685.99 62.33 685.99 67.67 686.01 73.00 C 685.25 73.00 683.75 73.00 682.99 73.00 C 683.00 67.67 683.00 62.33 682.99 57.00 Z" />
<path fill="#ffffff" opacity="1.00" d=" M 686.99 57.00 C 687.75 57.00 689.25 57.00 690.00 57.00 C 690.00 62.33 690.00 67.67 690.00 73.00 C 689.25 73.00 687.75 73.00 686.99 73.00 C 687.00 67.67 687.00 62.33 686.99 57.00 Z" />
<path fill="#ffffff" opacity="1.00" d=" M 706.99 57.00 C 707.75 57.00 709.25 57.00 710.00 57.00 C 709.99 62.33 709.99 67.67 710.00 73.00 C 709.25 73.00 707.75 73.00 706.99 73.00 C 707.00 67.67 707.00 62.33 706.99 57.00 Z" />
<path fill="#ffffff" opacity="1.00" d=" M 718.99 57.00 C 719.75 57.00 721.25 57.00 722.01 57.00 C 721.99 62.33 721.99 67.67 722.01 73.00 C 721.25 73.00 719.75 73.00 718.99 73.00 C 719.00 67.67 719.00 62.33 718.99 57.00 Z" />
<path fill="#ffffff" opacity="1.00" d=" M 815.00 57.00 C 815.75 57.00 817.25 57.00 818.01 57.00 C 817.99 62.33 817.99 67.67 818.01 73.00 C 817.25 73.00 815.75 73.00 815.00 73.00 C 815.00 67.67 815.00 62.33 815.00 57.00 Z" />
<path fill="#ffffff" opacity="1.00" d=" M 818.99 57.00 C 819.75 57.00 821.25 57.00 822.00 57.00 C 821.99 62.33 821.99 67.67 822.00 73.00 C 821.25 73.00 819.75 73.00 818.99 73.00 C 819.00 67.67 819.00 62.33 818.99 57.00 Z" />
<path fill="#ffffff" opacity="1.00" d=" M 847.00 57.00 C 847.75 57.00 849.25 57.00 850.01 57.00 C 849.99 62.33 849.99 67.67 850.01 73.00 C 849.25 73.00 847.75 73.00 847.00 73.00 C 847.00 67.67 847.00 62.33 847.00 57.00 Z" />
<path fill="#ffffff" opacity="1.00" d=" M 862.99 57.00 C 863.75 57.00 865.25 57.00 866.01 57.00 C 865.99 62.33 865.99 67.67 866.01 73.00 C 865.25 73.00 863.75 73.00 862.99 73.00 C 863.00 67.67 863.00 62.33 862.99 57.00 Z" />
<path fill="#ffffff" opacity="1.00" d=" M 931.00 57.00 C 931.75 57.00 933.25 57.00 934.01 57.00 C 933.99 62.33 933.99 67.67 934.01 73.00 C 933.25 73.00 931.75 73.00 931.00 73.00 C 931.00 67.67 931.00 62.33 931.00 57.00 Z" />
<path fill="#ffffff" opacity="1.00" d=" M 934.99 57.00 C 935.75 57.00 937.25 57.00 938.00 57.00 C 937.99 62.33 937.99 67.67 938.00 73.00 C 937.25 73.00 935.75 73.00 934.99 73.00 C 935.00 67.67 935.00 62.33 934.99 57.00 Z" />
<path fill="#ffffff" opacity="1.00" d=" M 943.00 57.00 C 943.75 57.00 945.25 57.00 946.00 57.00 C 945.99 62.33 945.99 67.67 946.00 73.00 C 945.25 73.00 943.75 73.00 943.00 73.00 C 943.00 67.67 943.00 62.33 943.00 57.00 Z" />
<path fill="#ffffff" opacity="1.00" d=" M 955.00 57.00 C 955.75 57.00 957.25 57.00 958.01 57.00 C 957.99 62.33 957.99 67.67 958.01 73.00 C 957.25 73.00 955.75 73.00 955.00 73.00 C 955.00 67.67 955.00 62.33 955.00 57.00 Z" />
<path fill="#ffffff" opacity="1.00" d=" M 958.99 57.00 C 959.75 57.00 961.25 57.00 962.00 57.00 C 961.99 62.33 961.99 67.67 962.00 73.00 C 961.25 73.00 959.75 73.00 958.99 73.00 C 959.00 67.67 959.00 62.33 958.99 57.00 Z" />
<path fill="#ffffff" opacity="1.00" d=" M 438.99 58.00 C 439.75 58.00 441.25 58.00 442.00 58.00 C 441.99 62.67 441.99 67.33 442.00 72.00 C 441.25 72.00 439.75 72.00 438.99 72.00 C 439.00 67.33 439.00 62.67 438.99 58.00 Z" />
<path fill="#ffffff" opacity="1.00" d=" M 626.99 58.00 C 627.75 58.00 629.25 58.00 630.01 58.00 C 629.99 62.67 629.99 67.33 630.01 72.00 C 629.25 72.00 627.75 72.00 626.99 72.00 C 627.00 67.33 627.00 62.67 626.99 58.00 Z" />
<path fill="#ffffff" opacity="1.00" d=" M 662.99 58.00 C 663.75 58.00 665.25 58.00 666.00 58.00 C 665.99 62.67 665.99 67.33 666.00 72.00 C 665.25 72.00 663.75 72.00 662.99 72.00 C 663.00 67.33 663.00 62.67 662.99 58.00 Z" />
<path fill="#ffffff" opacity="1.00" d=" M 695.00 58.00 C 695.75 58.00 697.25 58.00 698.01 58.00 C 697.99 62.67 697.99 67.33 698.01 72.00 C 697.25 72.00 695.75 72.00 695.00 72.00 C 695.00 67.33 695.00 62.67 695.00 58.00 Z" />
<path fill="#ffffff" opacity="1.00" d=" M 726.99 58.00 C 727.75 58.00 729.25 58.00 730.00 58.00 C 729.99 62.67 729.99 67.33 730.00 72.00 C 729.25 72.00 727.75 72.00 726.99 72.00 C 727.00 67.33 727.00 62.67 726.99 58.00 Z" />
<path fill="#ffffff" opacity="1.00" d=" M 755.00 58.00 C 755.75 58.00 757.25 58.00 758.00 58.00 C 757.99 62.67 757.99 67.33 758.00 72.00 C 757.25 72.00 755.75 72.00 755.00 72.00 C 755.00 67.33 755.00 62.67 755.00 58.00 Z" />
<path fill="#ffffff" opacity="1.00" d=" M 759.00 58.00 C 759.75 58.00 761.25 58.00 762.00 58.00 C 761.99 62.67 761.99 67.33 762.00 72.00 C 761.25 72.00 759.75 72.00 759.00 72.00 C 759.00 67.33 759.00 62.67 759.00 58.00 Z" />
<path fill="#ffffff" opacity="1.00" d=" M 795.00 58.00 C 795.75 58.00 797.25 58.00 798.00 58.00 C 797.99 62.67 797.99 67.33 798.00 72.00 C 797.25 72.00 795.75 72.00 795.00 72.00 C 795.00 67.33 795.00 62.67 795.00 58.00 Z" />
<path fill="#ffffff" opacity="1.00" d=" M 799.00 58.00 C 799.75 58.00 801.25 58.00 802.00 58.00 C 801.99 62.67 801.99 67.33 802.00 72.00 C 801.25 72.00 799.75 72.00 799.00 72.00 C 799.00 67.33 799.00 62.67 799.00 58.00 Z" />
<path fill="#ffffff" opacity="1.00" d=" M 811.00 58.00 C 811.75 58.00 813.25 58.00 814.01 58.00 C 813.99 62.67 813.99 67.33 814.01 72.00 C 813.25 72.00 811.75 72.00 811.00 72.00 C 811.00 67.33 811.00 62.67 811.00 58.00 Z" />
<path fill="#ffffff" opacity="1.00" d=" M 822.99 58.00 C 823.75 58.00 825.25 58.00 826.01 58.00 C 825.99 62.67 825.99 67.33 826.01 72.00 C 825.25 72.00 823.75 72.00 822.99 72.00 C 823.00 67.33 823.00 62.67 822.99 58.00 Z" />
<path fill="#ffffff" opacity="1.00" d=" M 907.00 58.00 C 907.75 58.00 909.25 58.00 910.01 58.00 C 909.99 62.67 909.99 67.33 910.01 72.00 C 909.25 72.00 907.75 72.00 907.00 72.00 C 907.00 67.33 907.00 62.67 907.00 58.00 Z" />
<path fill="#ffffff" opacity="1.00" d=" M 926.99 58.00 C 927.75 58.00 929.25 58.00 930.01 58.00 C 929.99 62.67 929.99 67.33 930.01 72.00 C 929.25 72.00 927.75 72.00 926.99 72.00 C 927.00 67.33 927.00 62.67 926.99 58.00 Z" />
<path fill="#ffffff" opacity="1.00" d=" M 946.99 58.00 C 947.75 58.00 949.25 58.00 950.00 58.00 C 949.99 62.67 949.99 67.33 950.01 72.00 C 949.25 72.00 947.75 72.00 946.99 72.00 C 947.00 67.33 947.00 62.67 946.99 58.00 Z" />
<path fill="#ffffff" opacity="1.00" d=" M 951.00 58.00 C 951.75 58.00 953.25 58.00 954.01 58.00 C 953.99 62.67 953.99 67.33 954.01 72.00 C 953.25 72.00 951.75 72.00 951.00 72.00 C 951.00 67.33 951.00 62.67 951.00 58.00 Z" />
<path fill="#ffffff" opacity="1.00" d=" M 983.00 58.00 C 983.75 58.00 985.25 58.00 986.00 58.00 C 985.99 62.67 985.99 67.33 986.00 72.00 C 985.25 72.00 983.75 72.00 983.00 72.00 C 983.00 67.33 983.00 62.67 983.00 58.00 Z" />
<path fill="#ffffff" opacity="1.00" d=" M 987.00 58.00 C 987.75 58.00 989.25 58.00 990.00 58.00 C 989.99 62.67 989.99 67.33 990.00 72.00 C 989.25 72.00 987.75 72.00 987.00 72.00 C 987.00 67.33 987.00 62.67 987.00 58.00 Z" />
<path fill="#ffffff" opacity="1.00" d=" M 999.00 58.00 C 999.75 58.00 1001.25 58.00 1002.00 58.00 C 1001.99 62.67 1001.99 67.33 1002.00 72.00 C 1001.25 72.00 999.75 72.00 999.00 72.00 C 999.00 67.33 999.00 62.67 999.00 58.00 Z" />
<path fill="#ffffff" opacity="1.00" d=" M 1003.00 58.00 C 1003.75 58.00 1005.25 58.00 1006.00 58.00 C 1005.99 62.67 1005.99 67.33 1006.00 72.00 C 1005.25 72.00 1003.75 72.00 1003.00 72.00 C 1003.00 67.33 1003.00 62.67 1003.00 58.00 Z" />
<path fill="#ffffff" opacity="1.00" d=" M 1007.00 58.00 C 1007.75 58.00 1009.25 58.00 1010.00 58.00 C 1009.99 62.67 1009.99 67.33 1010.00 72.00 C 1009.25 72.00 1007.75 72.00 1007.00 72.00 C 1007.00 67.33 1007.00 62.67 1007.00 58.00 Z" />
<path fill="#ffffff" opacity="1.00" d=" M 1015.00 58.00 C 1015.75 58.00 1017.25 58.00 1018.00 58.00 C 1017.99 62.67 1017.99 67.33 1018.00 72.00 C 1017.25 72.00 1015.75 72.00 1015.00 72.00 C 1015.00 67.33 1015.00 62.67 1015.00 58.00 Z" />
<path fill="#ffffff" opacity="1.00" d=" M 1019.00 58.00 C 1019.75 58.00 1021.25 58.00 1022.00 58.00 C 1021.99 62.67 1021.99 67.33 1022.00 72.00 C 1021.25 72.00 1019.75 72.00 1019.00 72.00 C 1019.00 67.33 1019.00 62.67 1019.00 58.00 Z" />
<path fill="#ffffff" opacity="1.00" d=" M 559.00 59.00 C 559.75 59.00 561.25 59.00 562.00 59.00 C 561.99 63.00 561.99 67.00 562.00 71.00 C 561.25 71.00 559.75 71.00 559.00 71.00 C 559.00 67.00 559.00 63.00 559.00 59.00 Z" />
<path fill="#ffffff" opacity="1.00" d=" M 619.00 59.00 C 619.75 59.00 621.25 59.00 622.00 59.00 C 621.99 63.00 621.99 67.00 622.00 71.00 C 621.25 71.00 619.75 71.00 619.00 71.00 C 619.00 67.00 619.00 63.00 619.00 59.00 Z" />
<path fill="#ffffff" opacity="1.00" d=" M 667.00 59.00 C 667.75 59.00 669.25 59.00 670.00 59.00 C 669.99 63.00 669.99 67.00 670.00 71.00 C 669.25 71.00 667.75 71.00 667.00 71.00 C 667.00 67.00 667.00 63.00 667.00 59.00 Z" />
<path fill="#ffffff" opacity="1.00" d=" M 735.00 59.00 C 735.75 59.00 737.25 59.00 738.00 59.00 C 737.99 63.00 737.99 67.00 738.00 71.00 C 737.25 71.00 735.75 71.00 735.00 71.00 C 735.00 67.00 735.00 63.00 735.00 59.00 Z" />
<path fill="#ffffff" opacity="1.00" d=" M 739.00 59.00 C 739.75 59.00 741.25 59.00 742.00 59.00 C 741.99 63.00 741.99 67.00 742.00 71.00 C 741.25 71.00 739.75 71.00 739.00 71.00 C 739.00 67.00 739.00 63.00 739.00 59.00 Z" />
<path fill="#ffffff" opacity="1.00" d=" M 743.00 59.00 C 743.75 59.00 745.25 59.00 746.00 59.00 C 745.99 63.00 745.99 67.00 746.00 71.00 C 745.25 71.00 743.75 71.00 743.00 71.00 C 743.00 67.00 743.00 63.00 743.00 59.00 Z" />
<path fill="#ffffff" opacity="1.00" d=" M 747.00 59.00 C 747.75 59.00 749.25 59.00 750.00 59.00 C 749.99 63.00 749.99 67.00 750.00 71.00 C 749.25 71.00 747.75 71.00 747.00 71.00 C 747.00 67.00 747.00 63.00 747.00 59.00 Z" />
<path fill="#ffffff" opacity="1.00" d=" M 763.00 59.00 C 763.75 59.00 765.25 59.00 766.00 59.00 C 765.99 63.00 765.99 67.00 766.00 71.00 C 765.25 71.00 763.75 71.00 763.00 71.00 C 763.00 67.00 763.00 63.00 763.00 59.00 Z" />
<path fill="#ffffff" opacity="1.00" d=" M 767.00 59.00 C 767.75 59.00 769.25 59.00 770.00 59.00 C 769.99 63.00 769.99 67.00 770.00 71.00 C 769.25 71.00 767.75 71.00 767.00 71.00 C 767.00 67.00 767.00 63.00 767.00 59.00 Z" />
<path fill="#ffffff" opacity="1.00" d=" M 775.00 59.00 C 775.75 59.00 777.25 59.00 778.00 59.00 C 777.99 63.00 777.99 67.00 778.00 71.00 C 777.25 71.00 775.75 71.00 775.00 71.00 C 775.00 67.00 775.00 63.00 775.00 59.00 Z" />
<path fill="#ffffff" opacity="1.00" d=" M 779.00 59.00 C 779.75 59.00 781.25 59.00 782.00 59.00 C 781.99 63.00 781.99 67.00 782.00 71.00 C 781.25 71.00 779.75 71.00 779.00 71.00 C 779.00 67.00 779.00 63.00 779.00 59.00 Z" />
<path fill="#ffffff" opacity="1.00" d=" M 807.00 59.00 C 807.75 59.00 809.25 59.00 810.00 59.00 C 809.99 63.00 809.99 67.00 810.00 71.00 C 809.25 71.00 807.75 71.00 807.00 71.00 C 807.00 67.00 807.00 63.00 807.00 59.00 Z" />
<path fill="#ffffff" opacity="1.00" d=" M 843.00 59.00 C 843.75 59.00 845.25 59.00 846.00 59.00 C 845.99 63.00 845.99 67.00 846.00 71.00 C 845.25 71.00 843.75 71.00 843.00 71.00 C 843.00 67.00 843.00 63.00 843.00 59.00 Z" />
<path fill="#ffffff" opacity="1.00" d=" M 903.00 59.00 C 903.75 59.00 905.25 59.00 906.00 59.00 C 905.99 63.00 905.99 67.00 906.00 71.00 C 905.25 71.00 903.75 71.00 903.00 71.00 C 903.00 67.00 903.00 63.00 903.00 59.00 Z" />
<path fill="#ffffff" opacity="1.00" d=" M 939.00 59.00 C 939.75 59.00 941.25 59.00 942.00 59.00 C 941.99 63.00 941.99 67.00 942.00 71.00 C 941.25 71.00 939.75 71.00 939.00 71.00 C 939.00 67.00 939.00 63.00 939.00 59.00 Z" />
<path fill="#ffffff" opacity="1.00" d=" M 967.00 59.00 C 967.75 59.00 969.25 59.00 970.00 59.00 C 969.99 63.00 969.99 67.00 970.00 71.00 C 969.25 71.00 967.75 71.00 967.00 71.00 C 967.00 67.00 967.00 63.00 967.00 59.00 Z" />
<path fill="#ffffff" opacity="1.00" d=" M 971.00 59.00 C 971.75 59.00 973.25 59.00 974.00 59.00 C 973.99 63.00 973.99 67.00 974.00 71.00 C 973.25 71.00 971.75 71.00 971.00 71.00 C 971.00 67.00 971.00 63.00 971.00 59.00 Z" />
<path fill="#ffffff" opacity="1.00" d=" M 979.00 59.00 C 979.75 59.00 981.25 59.00 982.00 59.00 C 981.99 63.00 981.99 67.00 982.00 71.00 C 981.25 71.00 979.75 71.00 979.00 71.00 C 979.00 67.00 979.00 63.00 979.00 59.00 Z" />
<path fill="#ffffff" opacity="1.00" d=" M 991.00 59.00 C 991.75 59.00 993.25 59.00 994.00 59.00 C 993.99 63.00 993.99 67.00 994.00 71.00 C 993.25 71.00 991.75 71.00 991.00 71.00 C 991.00 67.00 991.00 63.00 991.00 59.00 Z" />
<path fill="#ffffff" opacity="1.00" d=" M 995.00 59.00 C 995.75 59.00 997.25 59.00 998.00 59.00 C 997.99 63.00 997.99 67.00 998.00 71.00 C 997.25 71.00 995.75 71.00 995.00 71.00 C 995.00 67.00 995.00 63.00 995.00 59.00 Z" />
<path fill="#ffffff" opacity="1.00" d=" M 1023.00 59.00 C 1023.75 59.00 1025.25 59.00 1026.00 59.00 C 1025.99 63.00 1025.99 67.00 1026.00 71.00 C 1025.25 71.00 1023.75 71.00 1023.00 71.00 C 1023.00 67.00 1023.00 63.00 1023.00 59.00 Z" />
<path fill="#ffffff" opacity="1.00" d=" M 691.00 60.00 C 691.75 60.00 693.25 60.00 694.00 60.00 C 693.99 63.33 693.99 66.67 694.00 70.00 C 693.25 70.00 691.75 70.00 691.00 70.00 C 691.00 66.67 691.00 63.33 691.00 60.00 Z" />
<path fill="#ffffff" opacity="1.00" d=" M 731.00 60.00 C 731.75 60.00 733.25 60.00 734.00 60.00 C 733.99 63.33 733.99 66.67 734.00 70.00 C 733.25 70.00 731.75 70.00 731.00 70.00 C 731.00 66.67 731.00 63.33 731.00 60.00 Z" />
<path fill="#ffffff" opacity="1.00" d=" M 751.00 60.00 C 751.75 60.00 753.25 60.00 754.00 60.00 C 753.99 63.33 753.99 66.67 754.00 70.00 C 753.25 70.00 751.75 70.00 751.00 70.00 C 751.00 66.67 751.00 63.33 751.00 60.00 Z" />
<path fill="#ffffff" opacity="1.00" d=" M 783.00 60.00 C 783.75 60.00 785.25 60.00 786.00 60.00 C 785.99 63.33 785.99 66.67 786.00 70.00 C 785.25 70.00 783.75 70.00 783.00 70.00 C 783.00 66.67 783.00 63.33 783.00 60.00 Z" />
<path fill="#ffffff" opacity="1.00" d=" M 787.00 60.00 C 787.75 60.00 789.25 60.00 790.00 60.00 C 789.99 63.33 789.99 66.67 790.00 70.00 C 789.25 70.00 787.75 70.00 787.00 70.00 C 787.00 66.67 787.00 63.33 787.00 60.00 Z" />
<path fill="#ffffff" opacity="1.00" d=" M 791.00 60.00 C 791.75 60.00 793.25 60.00 794.00 60.00 C 793.99 63.33 793.99 66.67 794.00 70.00 C 793.25 70.00 791.75 70.00 791.00 70.00 C 791.00 66.67 791.00 63.33 791.00 60.00 Z" />
<path fill="#ffffff" opacity="1.00" d=" M 803.00 60.00 C 803.75 60.00 805.25 60.00 806.00 60.00 C 805.99 63.33 805.99 66.67 806.00 70.00 C 805.25 70.00 803.75 70.00 803.00 70.00 C 803.00 66.67 803.00 63.33 803.00 60.00 Z" />
<path fill="#ffffff" opacity="1.00" d=" M 963.00 60.00 C 963.75 60.00 965.25 60.00 966.00 60.00 C 965.99 63.33 965.99 66.67 966.00 70.00 C 965.25 70.00 963.75 70.00 963.00 70.00 C 963.00 66.67 963.00 63.33 963.00 60.00 Z" />
<path fill="#ffffff" opacity="1.00" d=" M 975.00 60.00 C 975.75 60.00 977.25 60.00 978.00 60.00 C 977.99 63.33 977.99 66.67 978.00 70.00 C 977.25 70.00 975.75 70.00 975.00 70.00 C 975.00 66.67 975.00 63.33 975.00 60.00 Z" />
<path fill="#ffffff" opacity="1.00" d=" M 1011.00 60.00 C 1011.75 60.00 1013.25 60.00 1014.00 60.00 C 1013.99 63.33 1013.99 66.67 1014.00 70.00 C 1013.25 70.00 1011.75 70.00 1011.00 70.00 C 1011.00 66.67 1011.00 63.33 1011.00 60.00 Z" />
<path fill="#ffffff" opacity="1.00" d=" M 1031.00 60.00 C 1031.75 60.00 1033.25 60.00 1034.00 60.00 C 1033.99 63.33 1033.99 66.67 1034.00 70.00 C 1033.25 70.00 1031.75 70.00 1031.00 70.00 C 1031.00 66.67 1031.00 63.33 1031.00 60.00 Z" />
<path fill="#ffffff" opacity="1.00" d=" M 443.00 61.00 C 443.75 61.00 445.25 61.00 446.00 61.00 C 446.00 63.67 446.00 66.33 446.00 69.00 C 445.25 69.00 443.75 69.00 443.00 69.00 C 443.00 66.33 443.00 63.67 443.00 61.00 Z" />
<path fill="#ffffff" opacity="1.00" d=" M 711.00 61.00 C 711.75 61.00 713.25 61.00 714.00 61.00 C 714.00 63.67 714.00 66.33 714.00 69.00 C 713.25 69.00 711.75 69.00 711.00 69.00 C 710.99 66.33 710.99 63.67 711.00 61.00 Z" />
<path fill="#ffffff" opacity="1.00" d=" M 1027.00 61.00 C 1027.75 61.00 1029.25 61.00 1030.00 61.00 C 1029.99 63.67 1029.99 66.33 1030.00 69.00 C 1029.25 69.00 1027.75 69.00 1027.00 69.00 C 1026.99 66.33 1026.99 63.67 1027.00 61.00 Z" />
<path fill="#ffffff" opacity="1.00" d=" M 1035.00 61.00 C 1035.75 61.00 1037.25 61.00 1038.00 61.00 C 1037.99 63.67 1037.99 66.33 1038.00 69.00 C 1037.25 69.00 1035.75 69.00 1035.00 69.00 C 1034.99 66.33 1034.99 63.67 1035.00 61.00 Z" />
<path fill="#ffffff" opacity="1.00" d=" M 770.99 62.00 C 771.75 62.00 773.25 62.00 774.01 62.00 C 773.99 64.00 773.99 66.00 774.01 68.00 C 773.25 68.00 771.75 68.00 770.99 68.00 C 771.00 66.00 771.00 64.00 770.99 62.00 Z" />
<path fill="#ffffff" opacity="1.00" d=" M 1038.99 62.00 C 1039.75 62.00 1041.25 62.00 1042.01 62.00 C 1041.98 64.00 1041.98 66.00 1042.01 68.00 C 1041.25 68.00 1039.75 68.00 1038.99 68.00 C 1038.99 66.00 1038.99 64.00 1038.99 62.00 Z" />
<path fill="#ffffff" opacity="1.00" d=" M 1043.00 63.00 C 1043.75 63.00 1045.25 63.00 1046.00 63.00 C 1045.98 64.33 1045.98 65.67 1046.00 67.00 C 1045.25 67.00 1043.75 67.00 1043.00 67.00 C 1042.99 65.67 1042.99 64.33 1043.00 63.00 Z" />
<path fill="#ffffff" opacity="1.00" d=" M 1047.00 63.00 C 1047.75 63.00 1049.26 63.00 1050.02 63.00 C 1050.00 64.33 1050.00 65.67 1050.02 67.00 C 1049.26 67.00 1047.75 67.00 1047.00 67.00 C 1046.99 65.67 1046.99 64.33 1047.00 63.00 Z" />
<path fill="#ffffff" opacity="1.00" d=" M 1051.24 64.23 C 1052.19 62.92 1054.98 64.21 1053.75 65.75 C 1052.77 67.07 1050.00 65.77 1051.24 64.23 Z" />
</g>
<g id="#7fb2ccff">
<path fill="#7fb2cc" opacity="1.00" d=" M 170.81 40.00 C 171.61 40.00 173.20 40.00 174.00 40.00 C 174.04 56.66 174.30 73.34 173.98 90.00 C 173.15 90.00 171.49 90.00 170.66 90.00 C 170.75 73.33 171.14 56.67 170.81 40.00 Z" />
<path fill="#7fb2cc" opacity="1.00" d=" M 330.68 40.00 C 331.52 40.00 333.18 40.01 334.01 40.01 C 334.22 56.66 334.23 73.33 334.02 89.98 C 333.15 89.99 331.40 90.00 330.52 90.01 C 331.11 73.34 330.77 56.67 330.68 40.00 Z" />
<path fill="#7fb2cc" opacity="1.00" d=" M 198.73 41.00 C 199.55 41.00 201.19 41.00 202.01 41.00 C 202.06 57.00 202.06 73.00 202.02 89.00 C 201.16 89.00 199.45 89.00 198.60 89.00 C 199.05 73.00 198.98 57.00 198.73 41.00 Z" />
<path fill="#7fb2cc" opacity="1.00" d=" M 270.70 42.00 C 271.53 42.00 273.18 42.00 274.01 42.00 C 274.04 57.33 274.05 72.67 274.01 88.00 C 273.18 88.00 271.50 88.00 270.67 88.00 C 270.98 72.67 270.99 57.33 270.70 42.00 Z" />
<path fill="#7fb2cc" opacity="1.00" d=" M 334.78 42.00 C 335.59 42.00 337.20 42.00 338.00 42.00 C 338.22 57.33 338.09 72.67 338.01 88.00 C 337.18 88.00 335.52 88.00 334.69 88.00 C 335.05 72.67 334.84 57.33 334.78 42.00 Z" />
<path fill="#7fb2cc" opacity="1.00" d=" M 182.87 43.00 C 183.65 43.00 185.22 43.00 186.01 43.00 C 186.08 57.67 186.06 72.33 186.01 87.00 C 185.17 87.00 183.49 87.00 182.65 87.00 C 182.97 72.33 182.98 57.67 182.87 43.00 Z" />
<path fill="#7fb2cc" opacity="1.00" d=" M 302.78 43.00 C 303.59 43.00 305.20 43.00 306.01 43.00 C 306.00 57.67 306.12 72.33 306.01 87.00 C 305.19 87.00 303.55 87.00 302.73 87.00 C 302.79 72.33 303.18 57.67 302.78 43.00 Z" />
<path fill="#7fb2cc" opacity="1.00" d=" M 174.91 44.00 C 175.68 44.00 177.22 44.00 177.99 44.00 C 177.98 58.00 178.25 72.00 177.97 86.00 C 177.17 86.00 175.56 86.00 174.76 86.00 C 174.97 72.00 174.90 58.00 174.91 44.00 Z" />
<path fill="#7fb2cc" opacity="1.00" d=" M 242.66 44.00 C 243.50 44.00 245.17 44.00 246.01 44.00 C 246.01 58.00 246.02 72.00 246.01 86.00 C 245.18 86.00 243.51 86.00 242.67 86.00 C 243.05 72.00 243.00 58.00 242.66 44.00 Z" />
<path fill="#7fb2cc" opacity="1.00" d=" M 266.72 44.00 C 267.56 44.00 269.23 44.00 270.06 44.00 C 270.17 58.00 270.17 72.00 270.09 86.00 C 269.23 86.00 267.50 86.00 266.64 86.00 C 267.00 72.00 266.92 58.00 266.72 44.00 Z" />
<path fill="#7fb2cc" opacity="1.00" d=" M 294.86 44.00 C 295.64 44.00 297.22 44.00 298.01 44.00 C 298.02 58.00 298.08 72.00 298.01 86.00 C 297.20 86.00 295.57 86.00 294.75 86.00 C 294.90 72.00 294.94 58.00 294.86 44.00 Z" />
<path fill="#7fb2cc" opacity="1.00" d=" M 86.98 46.00 C 87.73 46.00 89.25 46.00 90.00 46.00 C 89.96 58.67 90.11 71.33 90.01 84.00 C 89.13 84.00 87.38 84.00 86.51 83.99 C 87.13 71.34 86.93 58.66 86.98 46.00 Z" />
<path fill="#7fb2cc" opacity="1.00" d=" M 106.83 46.00 C 107.62 46.00 109.21 46.00 110.00 46.00 C 109.99 58.66 110.37 71.34 109.99 84.00 C 109.14 84.00 107.42 84.00 106.57 84.00 C 107.06 71.34 106.93 58.67 106.83 46.00 Z" />
<path fill="#7fb2cc" opacity="1.00" d=" M 194.81 46.00 C 195.62 46.00 197.25 46.00 198.06 46.00 C 198.10 58.67 198.14 71.33 198.09 84.00 C 197.21 84.00 195.46 84.00 194.58 84.00 C 195.20 71.35 194.92 58.67 194.81 46.00 Z" />
<path fill="#7fb2cc" opacity="1.00" d=" M 222.60 45.99 C 223.47 46.00 225.21 46.01 226.08 46.02 C 226.09 58.67 226.17 71.33 226.07 83.98 C 225.18 83.99 223.40 84.00 222.50 84.01 C 222.91 71.34 223.18 58.66 222.60 45.99 Z" />
<path fill="#7fb2cc" opacity="1.00" d=" M 318.71 46.00 C 319.53 46.00 321.17 46.00 321.99 46.00 C 322.12 58.67 322.16 71.33 321.98 84.00 C 321.17 84.00 319.54 84.00 318.73 84.00 C 318.93 71.33 319.19 58.66 318.71 46.00 Z" />
<path fill="#7fb2cc" opacity="1.00" d=" M 74.99 47.00 C 75.75 47.00 77.27 47.00 78.02 47.00 C 78.08 59.00 78.11 70.99 78.19 82.99 C 77.29 83.00 75.49 83.00 74.59 83.00 C 75.23 71.01 74.87 59.00 74.99 47.00 Z" />
<path fill="#7fb2cc" opacity="1.00" d=" M 78.98 47.00 C 79.73 47.00 81.25 47.00 82.00 47.00 C 81.89 59.00 82.20 71.00 81.99 83.00 C 81.20 83.00 79.62 82.99 78.83 82.99 C 78.86 70.99 78.94 59.00 78.98 47.00 Z" />
<path fill="#7fb2cc" opacity="1.00" d=" M 190.89 47.00 C 191.68 47.00 193.27 47.00 194.07 47.00 C 194.09 59.01 194.01 71.01 194.17 83.02 C 193.26 83.01 191.42 83.00 190.50 82.99 C 191.16 71.01 190.89 59.00 190.89 47.00 Z" />
<path fill="#7fb2cc" opacity="1.00" d=" M 226.79 47.00 C 227.61 47.00 229.24 47.01 230.06 47.01 C 230.12 59.00 230.13 70.99 230.09 82.98 C 229.27 82.99 227.63 82.99 226.81 83.00 C 226.89 71.00 227.02 59.00 226.79 47.00 Z" />
<path fill="#7fb2cc" opacity="1.00" d=" M 238.69 47.00 C 239.54 47.00 241.24 47.00 242.09 47.00 C 242.12 59.00 242.11 71.00 242.07 83.00 C 241.21 83.00 239.48 83.00 238.62 83.00 C 239.18 71.00 238.90 59.00 238.69 47.00 Z" />
<path fill="#7fb2cc" opacity="1.00" d=" M 362.72 47.00 C 363.29 47.00 364.43 47.00 365.00 47.00 C 365.00 59.00 365.00 71.00 365.00 83.00 C 364.46 83.00 363.37 83.00 362.82 83.00 C 362.88 71.00 362.56 59.00 362.72 47.00 Z" />
<path fill="#7fb2cc" opacity="1.00" d=" M 70.99 48.00 C 71.75 48.00 73.25 48.00 74.00 48.00 C 74.02 59.34 74.03 70.68 74.16 82.02 C 73.27 82.01 71.49 82.00 70.60 81.99 C 70.84 70.66 71.04 59.33 70.99 48.00 Z" />
<path fill="#7fb2cc" opacity="1.00" d=" M 230.84 48.00 C 231.63 48.00 233.20 48.00 233.99 48.00 C 234.11 59.33 234.10 70.67 233.99 82.00 C 233.18 82.00 231.54 82.00 230.72 82.00 C 231.06 70.67 230.88 59.33 230.84 48.00 Z" />
<path fill="#7fb2cc" opacity="1.00" d=" M 94.61 49.00 C 95.47 49.00 97.21 49.00 98.07 49.00 C 98.08 59.67 98.12 70.33 98.18 80.99 C 97.27 80.99 95.44 81.00 94.52 81.00 C 95.00 70.34 95.27 59.66 94.61 49.00 Z" />
<path fill="#7fb2cc" opacity="1.00" d=" M 98.95 49.00 C 99.72 49.00 101.26 49.00 102.03 49.00 C 102.08 59.66 102.12 70.33 102.17 81.00 C 101.33 81.00 99.67 81.00 98.84 81.00 C 98.86 70.33 98.91 59.67 98.95 49.00 Z" />
<path fill="#7fb2cc" opacity="1.00" d=" M 102.98 49.00 C 103.74 49.00 105.27 49.00 106.04 49.00 C 106.07 59.67 106.20 70.34 106.09 81.01 C 105.28 81.00 103.66 81.00 102.85 80.99 C 102.89 70.33 102.91 59.66 102.98 49.00 Z" />
<path fill="#7fb2cc" opacity="1.00" d=" M 110.94 49.00 C 111.72 49.00 113.26 49.00 114.03 49.00 C 114.01 59.66 114.31 70.33 114.07 80.99 C 113.24 80.99 111.58 81.00 110.76 81.00 C 110.92 70.34 110.92 59.67 110.94 49.00 Z" />
<path fill="#7fb2cc" opacity="1.00" d=" M 118.96 48.99 C 119.73 49.00 121.26 49.00 122.02 49.00 C 122.09 59.66 122.29 70.32 122.07 80.98 C 121.22 80.99 119.52 81.00 118.67 81.01 C 119.00 70.34 118.84 59.66 118.96 48.99 Z" />
<path fill="#7fb2cc" opacity="1.00" d=" M 154.85 49.00 C 155.65 49.00 157.26 49.00 158.07 49.00 C 158.13 59.67 158.15 70.33 158.17 80.99 C 157.27 81.00 155.48 81.00 154.58 81.00 C 155.02 70.34 154.89 59.67 154.85 49.00 Z" />
<path fill="#7fb2cc" opacity="1.00" d=" M 158.93 49.00 C 159.70 49.00 161.24 49.00 162.01 49.00 C 161.96 59.66 162.45 70.33 162.01 80.99 C 161.22 80.99 159.63 81.00 158.84 81.00 C 158.84 70.34 158.88 59.67 158.93 49.00 Z" />
<path fill="#7fb2cc" opacity="1.00" d=" M 178.91 49.00 C 179.69 49.00 181.25 49.00 182.03 49.00 C 182.06 59.66 182.18 70.33 182.09 80.99 C 181.24 80.99 179.53 81.00 178.68 81.00 C 179.12 70.34 178.91 59.67 178.91 49.00 Z" />
<path fill="#7fb2cc" opacity="1.00" d=" M 206.70 49.00 C 207.53 49.00 209.18 49.00 210.01 49.00 C 210.07 59.67 210.07 70.33 210.01 81.00 C 209.14 81.00 207.40 81.00 206.53 81.00 C 206.98 70.33 207.01 59.67 206.70 49.00 Z" />
<path fill="#7fb2cc" opacity="1.00" d=" M 250.73 49.00 C 251.59 49.00 253.31 49.00 254.17 49.00 C 254.06 59.67 254.07 70.33 254.24 80.99 C 253.31 80.99 251.43 81.00 250.50 81.00 C 251.04 70.34 250.87 59.67 250.73 49.00 Z" />
<path fill="#7fb2cc" opacity="1.00" d=" M 254.84 48.99 C 255.65 49.00 257.25 49.01 258.06 49.01 C 258.14 59.67 258.15 70.33 258.07 80.99 C 257.25 80.99 255.60 81.00 254.78 81.01 C 254.89 70.34 254.95 59.67 254.84 48.99 Z" />
<path fill="#7fb2cc" opacity="1.00" d=" M 83.00 50.00 C 83.75 50.00 85.26 49.99 86.01 49.98 C 85.97 59.99 86.17 70.00 86.09 80.00 C 85.26 80.00 83.59 80.00 82.76 80.00 C 83.12 70.00 82.94 60.00 83.00 50.00 Z" />
<path fill="#7fb2cc" opacity="1.00" d=" M 114.96 50.00 C 115.73 50.00 117.25 49.99 118.01 49.98 C 118.10 59.99 118.22 70.00 118.11 80.01 C 117.28 80.01 115.62 80.00 114.80 79.99 C 114.87 70.00 114.91 60.00 114.96 50.00 Z" />
<path fill="#7fb2cc" opacity="1.00" d=" M 122.98 50.00 C 123.73 50.00 125.24 50.00 125.99 50.00 C 126.11 60.00 126.26 70.00 125.98 80.00 C 125.18 80.00 123.59 80.00 122.80 80.00 C 122.88 70.00 122.81 60.00 122.98 50.00 Z" />
<path fill="#7fb2cc" opacity="1.00" d=" M 134.85 50.00 C 135.66 50.00 137.27 50.00 138.07 50.00 C 138.12 60.00 138.14 70.00 138.19 79.99 C 137.29 80.00 135.49 80.00 134.59 80.00 C 134.85 70.00 134.90 60.00 134.85 50.00 Z" />
<path fill="#7fb2cc" opacity="1.00" d=" M 138.94 50.00 C 139.72 50.00 141.30 50.00 142.09 50.00 C 142.11 60.00 142.15 70.00 142.20 80.00 C 141.36 80.00 139.67 80.00 138.83 80.00 C 138.84 70.00 138.88 60.00 138.94 50.00 Z" />
<path fill="#7fb2cc" opacity="1.00" d=" M 142.92 50.01 C 143.69 50.00 145.22 50.00 145.99 50.00 C 146.05 60.00 146.37 70.00 145.97 80.00 C 145.18 80.00 143.60 80.00 142.81 79.99 C 142.83 70.00 142.89 60.00 142.92 50.01 Z" />
<path fill="#7fb2cc" opacity="1.00" d=" M 258.80 50.00 C 259.61 50.00 261.21 50.01 262.02 50.01 C 262.21 60.00 262.09 70.00 262.02 79.99 C 261.21 80.00 259.60 80.00 258.79 80.00 C 258.96 70.00 258.96 60.00 258.80 50.00 Z" />
<path fill="#7fb2cc" opacity="1.00" d=" M 322.84 50.00 C 323.63 50.00 325.19 50.00 325.98 50.00 C 326.24 60.00 326.11 70.00 325.99 80.00 C 325.18 80.00 323.56 80.00 322.75 80.00 C 323.07 70.01 322.91 60.00 322.84 50.00 Z" />
<path fill="#7fb2cc" opacity="1.00" d=" M 342.67 49.99 C 343.52 50.00 345.22 50.01 346.07 50.01 C 346.27 60.01 346.07 70.01 346.02 80.00 C 345.25 80.00 343.69 80.00 342.91 80.00 C 342.89 70.00 342.97 59.99 342.67 49.99 Z" />
<path fill="#7fb2cc" opacity="1.00" d=" M 150.90 51.00 C 151.68 51.00 153.24 51.00 154.03 51.00 C 154.12 60.34 154.22 69.67 154.11 79.00 C 153.23 79.00 151.46 79.00 150.57 79.00 C 150.92 69.67 150.91 60.33 150.90 51.00 Z" />
<path fill="#7fb2cc" opacity="1.00" d=" M 162.95 51.00 C 163.71 51.00 165.25 51.00 166.01 51.00 C 166.06 60.33 166.26 69.66 166.02 78.98 C 165.19 78.99 163.53 79.00 162.70 79.00 C 162.90 69.67 162.92 60.33 162.95 51.00 Z" />
<path fill="#7fb2cc" opacity="1.00" d=" M 214.82 51.00 C 215.63 51.00 217.24 51.00 218.04 51.00 C 218.04 60.33 218.20 69.66 218.09 78.98 C 217.21 78.99 215.45 79.00 214.57 79.01 C 215.07 69.68 214.91 60.34 214.82 51.00 Z" />
<path fill="#7fb2cc" opacity="1.00" d=" M 338.76 51.00 C 339.59 51.00 341.27 50.99 342.11 50.99 C 342.22 60.33 342.10 69.67 342.01 79.00 C 341.23 79.00 339.66 79.00 338.87 79.00 C 338.89 69.67 338.94 60.33 338.76 51.00 Z" />
<path fill="#7fb2cc" opacity="1.00" d=" M 346.79 51.00 C 347.60 51.00 349.21 51.01 350.01 51.01 C 350.25 60.34 350.07 69.67 350.01 79.00 C 349.25 79.00 347.73 79.00 346.98 79.00 C 346.84 69.67 346.91 60.33 346.79 51.00 Z" />
<path fill="#7fb2cc" opacity="1.00" d=" M 218.95 52.00 C 219.72 52.00 221.26 52.00 222.03 52.00 C 222.05 60.67 222.20 69.33 222.13 78.00 C 221.30 78.00 219.63 78.00 218.80 78.00 C 218.94 69.33 218.91 60.67 218.95 52.00 Z" />
<path fill="#7fb2cc" opacity="1.00" d=" M 262.77 52.00 C 263.61 52.00 265.28 52.00 266.12 52.00 C 266.11 60.67 266.15 69.33 266.05 78.00 C 265.23 78.00 263.59 78.00 262.77 78.00 C 263.04 69.34 262.95 60.67 262.77 52.00 Z" />
<path fill="#7fb2cc" opacity="1.00" d=" M 278.85 52.00 C 279.65 52.00 281.24 51.99 282.03 51.99 C 282.07 60.66 282.06 69.33 282.09 78.00 C 281.28 78.00 279.65 78.00 278.84 78.00 C 278.95 69.33 278.98 60.67 278.85 52.00 Z" />
<path fill="#7fb2cc" opacity="1.00" d=" M 282.97 51.99 C 283.73 52.00 285.23 52.00 285.99 52.00 C 286.12 60.67 286.10 69.33 285.99 78.00 C 285.22 78.00 283.68 78.00 282.92 78.00 C 282.94 69.33 282.93 60.66 282.97 51.99 Z" />
<path fill="#7fb2cc" opacity="1.00" d=" M 314.90 52.01 C 315.67 52.00 317.22 52.00 318.00 52.00 C 318.02 60.66 318.10 69.33 318.05 78.00 C 317.21 78.00 315.51 78.00 314.66 78.00 C 315.13 69.34 314.95 60.67 314.90 52.01 Z" />
<path fill="#7fb2cc" opacity="1.00" d=" M 166.92 53.00 C 167.70 53.00 169.26 52.99 170.04 52.99 C 170.13 60.99 170.22 68.99 170.07 77.00 C 169.24 77.00 167.60 77.00 166.77 77.00 C 166.94 69.00 166.90 61.00 166.92 53.00 Z" />
<path fill="#7fb2cc" opacity="1.00" d=" M 234.84 53.00 C 235.65 53.00 237.26 53.00 238.07 53.00 C 238.14 61.00 238.06 69.00 238.01 77.00 C 237.22 77.00 235.64 77.00 234.85 77.00 C 234.98 69.00 234.98 61.00 234.84 53.00 Z" />
<path fill="#7fb2cc" opacity="1.00" d=" M 310.90 53.00 C 311.68 53.00 313.25 53.00 314.03 53.00 C 314.05 61.00 314.02 69.01 314.13 77.01 C 313.26 77.01 311.53 77.00 310.67 77.00 C 311.13 69.01 310.97 61.00 310.90 53.00 Z" />
<path fill="#7fb2cc" opacity="1.00" d=" M 350.83 53.00 C 351.62 53.00 353.20 53.00 353.99 53.00 C 354.25 61.00 354.08 69.00 353.99 77.00 C 353.24 77.00 351.73 77.00 350.98 77.01 C 350.86 69.00 350.92 61.00 350.83 53.00 Z" />
<path fill="#7fb2cc" opacity="1.00" d=" M 90.99 54.00 C 91.74 54.00 93.25 54.00 94.01 54.00 C 93.96 61.33 94.10 68.66 94.06 75.99 C 93.22 75.99 91.52 76.00 90.68 76.00 C 91.19 68.67 90.93 61.33 90.99 54.00 Z" />
<path fill="#7fb2cc" opacity="1.00" d=" M 290.62 54.00 C 291.48 54.00 293.21 54.00 294.07 54.00 C 294.10 61.33 294.13 68.67 294.14 76.00 C 293.30 76.00 291.62 76.00 290.79 76.00 C 290.97 68.67 291.19 61.32 290.62 54.00 Z" />
<path fill="#7fb2cc" opacity="1.00" d=" M 306.92 54.00 C 307.69 54.00 309.25 54.00 310.02 54.00 C 310.04 61.34 310.02 68.67 310.12 76.01 C 309.28 76.01 307.58 76.00 306.74 75.99 C 307.01 68.67 306.99 61.33 306.92 54.00 Z" />
<path fill="#7fb2cc" opacity="1.00" d=" M 126.89 55.00 C 127.68 55.00 129.25 55.00 130.03 55.00 C 130.13 61.66 130.26 68.33 130.07 74.99 C 129.24 74.99 127.58 75.00 126.75 75.00 C 126.91 68.33 126.89 61.67 126.89 55.00 Z" />
<path fill="#7fb2cc" opacity="1.00" d=" M 146.94 55.00 C 147.70 55.00 149.24 55.00 150.00 55.00 C 150.17 61.66 150.24 68.33 150.08 74.99 C 149.23 75.00 147.53 75.00 146.68 75.00 C 146.90 68.34 146.87 61.67 146.94 55.00 Z" />
<path fill="#7fb2cc" opacity="1.00" d=" M 186.87 55.00 C 187.66 55.00 189.23 55.00 190.01 55.00 C 190.11 61.67 190.16 68.33 190.01 75.00 C 189.23 75.00 187.67 75.00 186.89 75.00 C 186.93 68.33 186.93 61.67 186.87 55.00 Z" />
<path fill="#7fb2cc" opacity="1.00" d=" M 326.76 55.00 C 327.58 55.00 329.24 55.00 330.06 55.00 C 330.22 61.67 330.20 68.33 330.04 75.00 C 329.24 75.00 327.65 75.00 326.86 75.00 C 326.91 68.33 326.92 61.67 326.76 55.00 Z" />
<path fill="#7fb2cc" opacity="1.00" d=" M 130.96 56.00 C 131.73 56.00 133.26 56.00 134.03 56.00 C 134.17 62.00 134.31 68.00 134.06 74.00 C 133.24 74.00 131.61 74.00 130.80 74.00 C 130.85 68.00 130.86 62.00 130.96 56.00 Z" />
<path fill="#7fb2cc" opacity="1.00" d=" M 202.89 56.00 C 203.67 56.00 205.24 56.00 206.02 56.00 C 206.12 62.00 206.16 68.00 206.05 74.00 C 205.25 74.00 203.66 74.00 202.87 74.00 C 202.92 68.00 202.92 62.00 202.89 56.00 Z" />
<path fill="#7fb2cc" opacity="1.00" d=" M 274.93 56.00 C 275.70 56.00 277.24 56.00 278.01 56.00 C 278.11 62.00 278.11 68.00 278.02 74.00 C 277.24 74.00 275.66 74.00 274.88 74.00 C 274.93 68.00 274.92 62.00 274.93 56.00 Z" />
<path fill="#7fb2cc" opacity="1.00" d=" M 286.91 56.00 C 287.68 56.00 289.24 56.00 290.02 55.99 C 289.99 62.00 290.07 68.00 290.04 74.00 C 289.26 74.00 287.71 74.00 286.93 74.00 C 286.93 68.00 286.93 62.00 286.91 56.00 Z" />
<path fill="#7fb2cc" opacity="1.00" d=" M 298.90 56.00 C 299.68 56.00 301.24 55.99 302.02 55.98 C 302.10 61.99 302.12 67.99 302.06 74.00 C 301.24 74.00 299.59 74.00 298.77 74.00 C 299.00 68.00 299.00 62.00 298.90 56.00 Z" />
<path fill="#7fb2cc" opacity="1.00" d=" M 354.83 56.00 C 355.62 56.00 357.20 56.00 357.99 55.99 C 358.06 62.00 358.06 68.00 357.99 74.01 C 357.24 74.00 355.74 74.00 354.99 74.00 C 354.86 68.00 354.90 62.00 354.83 56.00 Z" />
<path fill="#7fb2cc" opacity="1.00" d=" M 210.88 58.00 C 211.66 58.00 213.23 58.00 214.01 58.00 C 214.14 62.66 214.16 67.33 214.02 72.00 C 213.23 72.00 211.64 72.00 210.85 72.00 C 210.90 67.33 210.91 62.67 210.88 58.00 Z" />
<path fill="#7fb2cc" opacity="1.00" d=" M 246.94 60.00 C 247.72 60.00 249.28 60.00 250.07 60.00 C 250.07 63.33 250.07 66.67 250.07 70.00 C 249.28 70.00 247.69 70.00 246.90 70.00 C 246.94 66.67 246.95 63.33 246.94 60.00 Z" />
<path fill="#7fb2cc" opacity="1.00" d=" M 54.98 63.00 C 55.74 63.00 57.26 63.00 58.02 63.00 C 58.01 64.33 58.01 65.67 58.02 67.00 C 57.26 67.00 55.73 67.00 54.97 67.00 C 54.98 65.67 54.98 64.33 54.98 63.00 Z" />
<path fill="#7fb2cc" opacity="1.00" d=" M 62.97 63.00 C 63.73 63.00 65.25 63.00 66.01 63.00 C 66.01 64.33 66.01 65.67 66.02 67.00 C 65.26 67.00 63.73 67.00 62.97 67.00 C 62.98 65.67 62.98 64.33 62.97 63.00 Z" />
<path fill="#7fb2cc" opacity="1.00" d=" M 66.99 63.00 C 67.75 62.99 69.26 62.99 70.02 62.99 C 70.01 64.32 70.01 65.66 70.02 67.00 C 69.26 67.00 67.75 67.00 66.99 67.00 C 66.99 65.66 66.99 64.33 66.99 63.00 Z" />
<path fill="#7fb2cc" opacity="1.00" d=" M 358.74 63.00 C 359.57 63.00 361.23 63.00 362.06 63.00 C 362.04 64.33 362.03 65.66 362.03 67.00 C 361.21 67.00 359.57 67.00 358.75 67.00 C 358.74 65.66 358.74 64.33 358.74 63.00 Z" />
<path fill="#7fb2cc" opacity="1.00" d=" M 3.26 64.21 C 4.25 62.86 6.94 64.28 5.74 65.79 C 4.76 67.13 2.06 65.72 3.26 64.21 Z" />
<path fill="#7fb2cc" opacity="1.00" d=" M 7.26 64.21 C 8.25 62.85 10.93 64.28 9.74 65.79 C 8.75 67.15 6.07 65.72 7.26 64.21 Z" />
<path fill="#7fb2cc" opacity="1.00" d=" M 11.26 64.21 C 12.25 62.85 14.93 64.28 13.74 65.79 C 12.75 67.14 10.07 65.72 11.26 64.21 Z" />
<path fill="#7fb2cc" opacity="1.00" d=" M 15.26 64.21 C 16.24 62.85 18.93 64.27 17.74 65.78 C 16.75 67.13 14.06 65.72 15.26 64.21 Z" />
<path fill="#7fb2cc" opacity="1.00" d=" M 19.26 64.21 C 20.24 62.85 22.93 64.28 21.74 65.79 C 20.75 67.14 18.06 65.72 19.26 64.21 Z" />
<path fill="#7fb2cc" opacity="1.00" d=" M 27.26 64.21 C 28.24 62.87 30.95 64.27 29.75 65.78 C 28.77 67.13 26.06 65.73 27.26 64.21 Z" />
<path fill="#7fb2cc" opacity="1.00" d=" M 31.25 64.22 C 32.23 62.88 34.95 64.26 33.75 65.78 C 32.77 67.12 30.05 65.74 31.25 64.22 Z" />
<path fill="#7fb2cc" opacity="1.00" d=" M 35.25 64.22 C 36.22 62.88 38.94 64.26 37.75 65.78 C 36.77 67.12 34.05 65.74 35.25 64.22 Z" />
<path fill="#7fb2cc" opacity="1.00" d=" M 39.26 64.21 C 40.24 62.87 42.96 64.26 41.75 65.78 C 40.77 67.11 38.05 65.73 39.26 64.21 Z" />
<path fill="#7fb2cc" opacity="1.00" d=" M 43.24 64.22 C 44.22 62.88 46.95 64.25 45.75 65.78 C 44.77 67.10 42.04 65.73 43.24 64.22 Z" />
<path fill="#7fb2cc" opacity="1.00" d=" M 47.25 64.22 C 48.23 62.88 50.94 64.26 49.75 65.78 C 48.77 67.12 46.05 65.73 47.25 64.22 Z" />
<path fill="#7fb2cc" opacity="1.00" d=" M 51.25 64.22 C 52.23 62.87 54.94 64.27 53.74 65.79 C 52.76 67.13 50.05 65.73 51.25 64.22 Z" />
<path fill="#7fb2cc" opacity="1.00" d=" M 59.26 64.21 C 60.24 62.86 62.93 64.27 61.74 65.79 C 60.76 67.14 58.06 65.73 59.26 64.21 Z" />
</g>
</svg>
